<svg width="617" height="182" viewBox="0 0 617 182" fill="none" xmlns="http://www.w3.org/2000/svg">
<path d="M600.433 149.616L559.15 38.2563C564.212 37.3261 568.704 37.003 572.185 37.003C575.939 37.003 579.057 34.1287 579.292 30.3967L579.308 30.2742C579.632 25.2108 574.682 21.4844 569.866 23.1443C565.34 24.704 560.474 27.4501 556.177 30.2575C550.523 33.9616 545.841 37.7828 544.182 39.1698C544.009 39.3146 543.796 39.387 543.584 39.387C543.338 39.387 543.103 39.2923 542.925 39.1141C542.522 38.7186 542.567 38.0724 543.003 37.7215L555.334 28.0015L563.435 21.6236C564.96 20.4149 565.553 18.3706 564.882 16.538L560.105 3.43135C558.87 0.0558063 554.077 0.0558116 552.853 3.43693L538.271 43.1636H538.293L499.501 147.471C493.691 162.489 491.539 168.928 482.287 178.152V178.581H508.541V178.152C503.809 172.359 499.071 162.489 506.172 143.394L514.994 119.364H571.162L581.923 148.758C587.303 163.346 586.013 173.217 582.783 178.152V178.581H616.999V178.152C609.68 171.93 606.669 166.783 600.428 149.616H600.433ZM516.715 115.075L543.372 42.8517L543.4 42.7737L543.422 42.8294L569.654 115.075H516.715Z" fill="#ADBE8F"/>
<path d="M543.421 42.8289C543.421 42.8289 543.393 42.8454 543.371 42.8509L543.399 42.7739L543.421 42.8289Z" fill="#ADBE8F"/>
<path d="M114.967 172.571L104.944 164.037C103.547 162.845 101.536 162.684 99.96 163.63L78.9522 176.286C78.4997 176.559 77.9074 176.375 77.6951 175.896C77.5107 175.484 77.6616 174.999 78.0583 174.776C81.1871 173.016 94.1158 165.469 100.765 157.436C103.804 153.76 102.117 148.19 97.5463 146.808L97.4346 146.775C94.0543 145.756 90.4786 147.544 89.2382 150.841C87.5788 155.258 85.5674 159.509 81.5279 164.772C77.913 169.485 72.6555 172.749 66.7778 173.679C66.2191 173.768 65.6883 173.829 65.2078 173.857L26.2541 175.361V61.4673C26.2541 46.6617 27.7626 40.8687 34.8639 29.7116V29.2827H0V29.7116C6.67107 40.4398 8.60984 47.0907 8.60984 61.4673V146.396C8.60984 160.985 6.88897 167.424 0 178.152V178.581H76.2313L112.57 178.954C115.967 178.987 117.554 174.771 114.967 172.571Z" fill="#ADBE8F"/>
<path d="M19.459 27.2938C19.4813 26.9039 19.5428 26.5474 19.621 26.1631C19.5428 26.5586 19.4813 26.9262 19.459 27.2938Z" fill="#ADBE8F"/>
<path d="M20.0458 20.7271C20.1967 22.1864 20.1241 23.3172 19.9844 24.2586C20.1409 23.1 20.1576 21.8912 20.0458 20.7271Z" fill="#ADBE8F"/>
<path d="M17.0966 31.1265C16.5658 29.8342 16.3534 28.5363 16.3758 27.6173C8.34145 26.5199 3.84378 17.6076 8.06209 10.3218C8.32468 10.0043 10.4199 5.7765 15.3701 0.484802C15.9009 -0.0777883 16.7669 -0.161345 17.3983 0.289842C20.7282 2.68503 23.7844 5.45342 26.483 8.5226C31.1315 13.8143 30.0532 21.5123 24.9242 25.3836C23.1698 26.687 22.2367 25.5674 22.3541 24.5592C22.5217 23.1444 22.2256 21.5792 22.0021 19.9638C21.8792 19.0726 21.3819 18.4933 20.6556 18.5991C20.0186 18.7773 19.8789 19.3065 19.9739 20.0919C20.4656 24.2139 19.5605 25.573 19.4655 27.2998C19.3985 28.269 19.6275 29.4833 20.3538 30.8146L17.1021 31.1321L17.0966 31.1265Z" fill="#ADBE8F"/>
<path d="M19.7051 25.7794C19.7889 25.3839 19.8783 24.9606 19.9566 24.4927C19.8839 24.9661 19.7889 25.3839 19.7051 25.7794Z" fill="#ADBE8F"/>
<path d="M440.536 146.396V61.5064C440.536 46.918 438.815 40.6961 431.926 29.7507V29.3218H466.79V29.7507C459.688 40.9078 458.18 46.7008 458.18 61.5064V146.396C458.18 161.202 459.688 166.995 466.79 178.152V178.581H431.926V178.152C439.027 166.995 440.536 161.202 440.536 146.396Z" fill="#ADBE8F"/>
<path d="M452.148 27.2938C452.171 26.9039 452.232 26.5474 452.311 26.1631C452.232 26.5586 452.171 26.9262 452.148 27.2938Z" fill="#ADBE8F"/>
<path d="M452.733 20.7271C452.884 22.1864 452.812 23.3172 452.672 24.2586C452.828 23.1 452.845 21.8912 452.733 20.7271Z" fill="#ADBE8F"/>
<path d="M449.783 31.1265C449.252 29.8342 449.04 28.5363 449.062 27.6173C441.028 26.5199 436.53 17.6076 440.749 10.3218C441.011 10.0043 443.106 5.7765 448.057 0.484802C448.587 -0.0777883 449.453 -0.161345 450.085 0.289842C453.415 2.68503 456.471 5.45342 459.17 8.5226C463.818 13.8143 462.74 21.5123 457.611 25.3836C455.856 26.687 454.923 25.5674 455.041 24.5592C455.208 23.1444 454.912 21.5792 454.689 19.9638C454.566 19.0726 454.068 18.4933 453.342 18.5991C452.705 18.7773 452.566 19.3065 452.66 20.0919C453.152 24.2139 452.247 25.573 452.152 27.2998C452.085 28.269 452.314 29.4833 453.04 30.8146L449.789 31.1321L449.783 31.1265Z" fill="#ADBE8F"/>
<path d="M452.389 25.7794C452.473 25.3839 452.562 24.9606 452.64 24.4927C452.567 24.9661 452.473 25.3839 452.389 25.7794Z" fill="#ADBE8F"/>
<path d="M412.841 160.618L399.086 152.992C397.164 151.928 394.778 152.212 393.158 153.694L371.625 173.412C371.195 173.808 370.502 173.83 370.1 173.401C369.697 172.972 369.725 172.282 370.167 171.897C373.413 169.095 386.749 157.22 392.621 146.258C395.309 141.239 392.012 135.117 386.336 134.582L386.196 134.571C382.011 134.176 378.24 137.083 377.575 141.222C376.603 147.249 375.603 155.426 371.044 164.127C370.681 164.817 370.256 165.553 369.798 166.294C366.948 170.9 362.406 174.276 357.149 175.618C352.282 176.86 346.952 177.512 341.08 177.512C299.763 177.512 281.04 144.258 281.04 99.8466C281.04 55.4354 300.411 22.6101 343.667 22.6101C349.259 22.6101 354.394 23.2173 359.193 24.4817C360.646 24.8661 362.021 25.4342 363.306 26.1472C366.675 28.0244 369.396 30.9599 371.049 34.5192C375.19 43.4204 376.609 51.3914 377.581 57.4183C378.246 61.557 382.017 64.4702 386.202 64.0747L386.341 64.0636C392.018 63.5289 395.314 57.4016 392.627 52.3885C386.755 41.4207 373.418 29.5506 370.172 26.7488C369.725 26.3645 369.686 25.6849 370.105 25.2448C370.524 24.8048 371.195 24.8438 371.631 25.2337L393.163 44.9522C394.784 46.4339 397.169 46.718 399.091 45.6541L412.847 38.0285C416.389 36.0622 415.54 30.7538 411.551 29.9962L369.496 20.6884C367.764 20.3041 366.021 19.9866 364.261 19.7303C363.948 19.6858 363.624 19.6468 363.311 19.6022C357.568 18.8113 351.534 18.3267 345.393 18.3267C294.606 18.3267 260.82 54.1542 260.82 99.8577C260.82 145.561 291.164 181.818 340.661 181.818C349.963 181.818 358.853 180.537 366.814 178.659C367.351 178.537 368.228 178.314 369.496 177.98L411.551 168.672C415.534 167.914 416.389 162.606 412.847 160.64L412.841 160.618Z" fill="#ADBE8F"/>
<path d="M232.843 47.0854L232.658 4.77967C232.63 1.18689 237.122 -0.4786 239.458 2.26194L248.509 12.8955C249.772 14.3771 249.939 16.5049 248.923 18.1649L235.385 40.3454C235.094 40.8245 235.284 41.4483 235.798 41.6767C236.24 41.8772 236.754 41.7157 236.994 41.2979C238.877 37.9948 246.928 24.3756 255.487 17.3683C259.421 14.1488 265.366 15.9201 266.818 20.7829L266.852 20.8998C267.924 24.4815 266.003 28.2581 262.488 29.5615C256.035 31.9511 246.615 37.616 237.575 45.9602L232.843 47.0909V47.0854Z" fill="#ADBE8F"/>
<path d="M232.843 45.431V124.946C232.843 152.195 221.869 176.866 187.218 176.866C161.606 176.866 142.241 163.776 142.241 126.873V49.5251C142.241 43.7599 144.61 38.2454 148.784 34.2516C152.449 30.7368 155.187 28.4252 158.991 27.0215C162.165 25.8461 163.852 22.3871 162.874 19.1508L162.841 19.0394C161.506 14.6333 156.103 13.018 152.544 15.9479C144.772 22.3425 137.47 34.7752 135.766 37.7887C135.548 38.173 135.084 38.3178 134.682 38.1396C134.441 38.0338 134.279 37.8277 134.212 37.5937V37.1202C134.235 37.0534 134.263 36.9921 134.302 36.9253L146.554 16.711C147.471 15.1959 147.314 13.2631 146.163 11.9151L137.9 2.26748C136.581 0.72453 134.514 0.7301 133.14 1.72717C131.765 0.7301 129.698 0.72453 128.379 2.26748L120.116 11.9151C118.965 13.2631 118.803 15.1959 119.725 16.711L131.977 36.9253C132.017 36.9866 132.039 37.0534 132.061 37.1202V37.5937C132 37.8277 131.838 38.0282 131.598 38.1396C131.195 38.3178 130.726 38.173 130.514 37.7887C128.81 34.7752 121.507 22.3425 113.735 15.9479C110.176 13.018 104.774 14.6333 103.438 19.0394L103.405 19.1508C102.427 22.3815 104.114 25.8461 107.288 27.0215C111.16 28.453 114.043 30.8259 117.898 34.4466C122.161 38.4515 124.597 44.0273 124.597 49.8704V127.525C124.597 166.143 151.499 181.806 183.346 181.806C224.233 181.806 237.58 155.415 237.58 124.734V45.4366C237.58 42.1836 232.848 42.1836 232.848 45.4366L232.843 45.431Z" fill="#ADBE8F"/>
</svg>
