<svg width="137" height="36" viewBox="0 0 137 36" fill="none" xmlns="http://www.w3.org/2000/svg">
<g clip-path="url(#clip0_47_1954)">
<path d="M10.7874 0.0610352C10.814 0.303297 10.814 0.54556 10.814 0.818896C11.0406 0.818896 11.2377 0.818896 11.4534 0.818896C11.4534 0.974814 11.4534 1.10008 11.4534 1.25473C11.2523 1.25473 11.0538 1.25473 10.8402 1.25473C10.8402 1.51386 10.8402 1.74439 10.8402 1.99453C11.1723 2.0931 11.48 2.24459 11.6521 2.59161C11.8219 2.93384 11.796 3.27529 11.6747 3.64692C12.0127 3.68472 12.3383 3.71757 12.663 3.7581C13.863 3.90786 15.022 4.20848 16.1192 4.7258C17.573 5.41121 18.7606 6.39643 19.5484 7.82456C19.6358 7.98293 19.7071 8.15021 19.7869 8.31562C20.2332 8.27415 20.6702 8.15754 21.1343 8.29969C20.3724 10.467 19.9717 12.7014 19.7678 14.9941C20.0564 14.9941 20.3379 14.9941 20.6531 14.9941C20.6276 15.3896 20.6065 15.7667 20.5782 16.1433C20.5433 16.6064 20.502 17.069 20.4642 17.5318C20.4107 18.1858 20.3547 18.8396 20.306 19.4939C20.2722 19.9478 20.2488 20.4024 20.2213 20.8568C20.1847 21.4618 20.1445 22.0667 20.1135 22.672C20.0835 23.2579 20.0663 23.8445 20.0382 24.4306C19.9579 26.1067 19.8653 27.7809 19.3911 29.4062C18.9655 30.8651 18.2331 32.1356 17.1575 33.2138C16.3805 33.9927 15.5489 34.6899 14.567 35.1953C13.7143 35.6342 12.8098 35.8969 11.8601 36.0106C11.8002 36.0177 11.7412 36.0328 11.6731 36.0679C10.9545 36.0915 10.2444 36.0915 9.50171 36.0667C9.35215 36.0186 9.23593 35.9907 9.1182 35.9728C8.17143 35.8294 7.27771 35.5287 6.44126 35.0609C5.56041 34.5683 4.80897 33.9146 4.09576 33.204C3.02385 32.136 2.303 30.8708 1.87582 29.4256C1.40492 27.8323 1.31067 26.1892 1.22516 24.5447C1.18264 23.727 1.14994 22.9086 1.10219 22.0912C1.04802 21.1637 0.984065 20.2368 0.920509 19.3099C0.859021 18.4132 0.793827 17.5167 0.727947 16.6203C0.688916 16.0892 0.645405 15.5584 0.601544 14.9973C0.898952 14.9973 1.17762 14.9973 1.44644 14.9973C1.44644 14.8676 1.45818 14.7655 1.4446 14.6668C1.32773 13.8183 1.22207 12.9677 1.08237 12.1229C0.892623 10.9754 0.616401 9.84699 0.245823 8.74378C0.206292 8.62609 0.12335 8.52309 0.0605469 8.41328C0.0605469 8.38618 0.0605469 8.35909 0.0845813 8.30178C0.548363 8.27157 0.98811 8.27157 1.45341 8.27157C1.54614 8.08767 1.64138 7.86353 1.76604 7.6573C2.57718 6.31544 3.73668 5.3658 5.13853 4.70838C6.23191 4.19562 7.3892 3.89438 8.58852 3.75709C8.90324 3.72106 9.21763 3.6822 9.53652 3.64412C9.42653 3.27094 9.40044 2.92611 9.55966 2.5908C9.72504 2.2425 10.0395 2.09091 10.379 2.00428C10.379 1.74479 10.379 1.50583 10.379 1.2483C10.1594 1.2483 9.95943 1.2483 9.74762 1.2483C9.74762 1.10398 9.74762 0.979039 9.74762 0.82164C9.97084 0.82164 10.1774 0.82164 10.3887 0.82164C10.3887 0.546402 10.3887 0.303718 10.3887 0.0610352C10.5127 0.0610352 10.6368 0.0610352 10.7874 0.0610352ZM14.5903 11.47C14.5991 11.4772 14.6079 11.4844 14.6011 11.5393C14.5604 12.2825 14.1987 12.7209 13.494 12.837C13.1147 12.8995 12.727 12.905 12.3512 12.7978C12.1975 12.7539 12.0435 12.6918 11.9071 12.6089C11.5277 12.3782 11.1715 11.8625 11.3206 11.3852C11.459 11.3913 11.5982 11.4033 11.7373 11.4024C12.0668 11.4005 12.2386 11.2565 12.3082 10.9332C12.3707 10.6427 12.2463 10.3819 11.9742 10.2583C11.8745 10.2129 11.7652 10.1724 11.6577 10.164C11.4636 10.149 11.2675 10.1598 11.0321 10.1598C11.095 10.0271 11.1425 9.94017 11.1782 9.84866C11.2368 9.69843 11.3035 9.54874 11.3386 9.39246C11.405 9.09676 11.2861 8.87903 11.0092 8.75336C10.7124 8.61864 10.4211 8.64438 10.1391 8.79787C9.97467 8.88737 9.86866 9.02822 9.89669 9.21809C9.92732 9.42565 9.98604 9.63006 10.0459 9.83184C10.0758 9.93269 10.1355 10.0246 10.1931 10.1442C10.0887 10.1442 10.0297 10.1508 9.97254 10.1431C9.70456 10.1069 9.45144 10.1536 9.21508 10.2814C8.96221 10.4182 8.86553 10.6701 8.93672 10.9835C8.99829 11.2545 9.18517 11.3984 9.48613 11.4032C9.6341 11.4056 9.78214 11.4036 9.96366 11.4036C9.94721 11.5432 9.94398 11.6722 9.91542 11.7953C9.79021 12.3348 9.41897 12.6389 8.91574 12.7911C8.5223 12.9101 8.11044 12.9093 7.71293 12.8334C6.85937 12.6705 6.536 11.9848 6.63587 11.4401C6.74585 11.4401 6.85543 11.4509 6.96202 11.4376C7.12041 11.4178 7.28338 11.4 7.43233 11.3471C7.6686 11.2631 7.76848 11.0604 7.78118 10.8228C7.7943 10.5775 7.68583 10.3776 7.45765 10.2871C7.28332 10.2179 7.08966 10.1953 6.90293 10.1613C6.81065 10.1445 6.71458 10.1486 6.61896 10.1432C6.68816 9.88455 6.77064 9.66517 6.80239 9.43863C6.86379 9.00048 6.69633 8.77192 6.26032 8.73779C5.78961 8.70094 5.39371 8.86984 5.45997 9.44776C5.48379 9.65557 5.54005 9.85963 5.58468 10.0812C5.5221 10.0866 5.4616 10.105 5.40674 10.0943C5.16889 10.0479 4.94577 10.1047 4.73358 10.1972C4.44295 10.3238 4.32543 10.621 4.40938 10.9292C4.50488 11.2798 4.76456 11.4208 5.13597 11.4618C5.24412 11.4737 5.35468 11.4636 5.46975 11.4636C5.46108 11.7203 5.3816 11.9357 5.26037 12.1362C4.84295 12.8267 3.96136 13.0231 3.19331 12.7674C2.77029 12.6266 2.49611 12.3361 2.35234 11.9158C2.3064 11.7815 2.27458 11.6485 2.32856 11.5019C2.41872 11.5065 2.49929 11.5195 2.57829 11.5131C2.84374 11.4915 3.07882 11.4107 3.17354 11.1277C3.27065 10.8376 3.28929 10.5482 3.07734 10.2961C3.02168 10.2298 2.93524 10.176 2.85242 10.1492C2.66174 10.0875 2.46872 10.0297 2.26046 10.0838C2.14661 10.1133 2.02538 10.1143 1.87768 10.1316C1.93554 9.98518 1.98373 9.87473 2.02322 9.76123C2.17926 9.31269 2.03742 9.00831 1.59938 8.84032C1.30678 8.7281 1.00261 8.68908 0.685555 8.67331C1.22011 10.3163 1.52141 11.9933 1.75178 13.6771C7.67986 13.6771 13.5775 13.6771 19.4839 13.6771C19.7091 11.9775 20.0141 10.3117 20.5445 8.68414C20.192 8.68121 19.8671 8.73198 19.5621 8.86827C19.1903 9.03442 19.0807 9.28096 19.1907 9.68016C19.2299 9.82216 19.2852 9.95967 19.3413 10.1228C19.2134 10.1125 19.1143 10.0994 19.015 10.0978C18.8563 10.0952 18.6932 10.0775 18.5395 10.1063C18.1189 10.1852 17.9479 10.4479 17.9932 10.9064C18.0307 11.2866 18.2914 11.5143 18.6921 11.5165C18.7695 11.517 18.8468 11.5166 18.9225 11.5166C18.9667 12.1071 18.5241 12.5793 18.1281 12.7412C17.8189 12.8675 17.4983 12.8841 17.1747 12.8638C16.4088 12.8156 15.8156 12.2176 15.7825 11.4961C16.0026 11.4577 16.2276 11.4452 16.4336 11.3758C16.7234 11.2782 16.8523 11.0321 16.839 10.7004C16.8279 10.4234 16.7003 10.2467 16.3936 10.1598C16.2155 10.1092 16.0215 10.1146 15.8347 10.0946C15.7695 10.0876 15.7043 10.0802 15.6337 10.0723C15.68 9.89599 15.7272 9.74319 15.7595 9.58729C15.8413 9.19309 15.7763 8.79659 15.1757 8.73775C14.6931 8.69048 14.4569 8.90009 14.4515 9.32574C14.4499 9.45553 14.4733 9.58723 14.4988 9.71534C14.5258 9.85132 14.5689 9.98408 14.612 10.1443C14.489 10.1501 14.3906 10.1466 14.295 10.1612C14.1366 10.1853 13.9709 10.1986 13.8246 10.2572C13.5721 10.3583 13.4264 10.5975 13.4418 10.8222C13.4625 11.124 13.6253 11.3326 13.9352 11.3953C14.1405 11.437 14.3553 11.4311 14.5903 11.47ZM13.0417 4.25119C12.3556 4.1752 11.6694 4.09921 10.9652 4.02121C11.0062 3.94961 11.0454 3.89219 11.0736 3.82976C11.156 3.6474 11.256 3.46919 11.3091 3.27816C11.4116 2.90943 11.23 2.58114 10.8681 2.47585C10.3653 2.32954 9.81674 2.58073 9.89948 3.21803C9.92455 3.41118 10.0297 3.59531 10.1079 3.77943C10.1452 3.86735 10.2052 3.94556 10.2576 4.03244C9.64273 4.09253 9.05212 4.13694 8.46515 4.21059C7.46917 4.33555 6.50595 4.59246 5.5821 4.9902C4.37298 5.51075 3.32872 6.25178 2.52443 7.30911C2.25601 7.66197 2.02278 8.03639 1.86064 8.47721C2.35971 8.7006 2.5681 9.08041 2.4927 9.61698C2.56686 9.62802 2.62226 9.63626 2.67476 9.64408C3.5464 6.89347 6.30549 4.84147 9.12785 4.52652C8.4345 5.01378 7.75549 5.51974 7.18447 6.14997C6.60884 6.78528 6.09388 7.4623 5.80727 8.33279C6.22884 8.24969 6.58489 8.31559 6.93148 8.5038C6.95438 8.45582 6.97257 8.42261 6.98654 8.38769C7.1667 7.93745 7.31511 7.47116 7.5324 7.0398C7.99766 6.1162 8.65657 5.36083 9.58116 4.8666C9.79878 4.75028 10.018 4.6325 10.2992 4.61713C10.0674 5.87743 9.90287 7.11492 9.91123 8.37363C10.7346 8.15838 10.6582 8.20487 11.3505 8.38307C11.3288 7.1212 11.1945 5.87425 10.9475 4.60465C11.5103 4.71955 11.9403 4.99363 12.3415 5.31964C13.3697 6.15517 13.9498 7.2712 14.3076 8.53224C14.6548 8.30335 15.0251 8.25694 15.4576 8.33161C15.3712 8.12862 15.3092 7.95985 15.2297 7.79991C14.6707 6.67605 13.816 5.81024 12.8351 5.05746C12.5795 4.86134 12.3124 4.68045 12.0505 4.49256C12.309 4.51675 12.5508 4.57749 12.7943 4.63109C14.3638 4.97675 15.7247 5.70872 16.8514 6.86048C17.6299 7.65641 18.2608 8.55082 18.5636 9.634C18.7463 9.66774 18.7267 9.54946 18.722 9.44875C18.7037 9.05547 18.877 8.76912 19.2039 8.56589C19.2529 8.53544 19.298 8.4987 19.3377 8.47006C19.3338 8.43163 19.3357 8.41053 19.329 8.39259C19.3151 8.35489 19.2972 8.31863 19.2801 8.28217C18.8714 7.41048 18.2541 6.70599 17.5111 6.11243C16.2152 5.07711 14.7129 4.5269 13.0417 4.25119ZM13.4982 29.8624C13.5128 29.7932 13.5273 29.724 13.542 29.6548C13.7157 28.836 13.8837 28.0159 14.0655 27.199C14.1566 26.7895 14.2726 26.3856 14.3781 25.9762C13.6342 25.9011 13.2945 26.2253 13.331 26.9519C12.7781 27 12.5447 27.1583 12.506 27.5113C12.4471 28.0485 12.6113 28.3009 13.1397 28.4854C12.9597 28.9539 12.547 29.1943 12.0117 29.1427C11.5701 29.1002 11.2312 28.8104 11.1496 28.4056C11.6926 28.327 11.9718 28.0732 11.9508 27.6416C11.9444 27.5091 11.8792 27.3643 11.8007 27.2537C11.6566 27.0506 11.4203 27.0281 11.2102 27.0359C11.2242 26.7994 11.2457 26.5898 11.2464 26.38C11.247 26.1841 11.1543 26.0274 10.9827 25.9297C10.4968 25.6531 9.96629 25.9678 9.97478 26.5269C9.976 26.6069 9.99252 26.6868 10.003 26.7666C10.0145 26.8533 10.0272 26.9399 10.0393 27.0263C9.99948 27.0328 9.98023 27.0376 9.96076 27.0388C9.54704 27.0648 9.31454 27.2558 9.28669 27.5931C9.25508 27.9762 9.48032 28.2801 9.86123 28.3673C9.94344 28.3861 10.0263 28.4021 10.1106 28.4197C9.94008 28.9651 9.44256 29.1759 8.99376 29.1456C8.5557 29.116 8.22906 28.8771 8.09896 28.4744C8.59552 28.3276 8.78618 28.07 8.73132 27.5656C8.71607 27.4253 8.64195 27.2763 8.55463 27.1623C8.39374 26.9522 8.13719 26.9698 7.904 26.9723C7.88556 26.2176 7.51488 25.8735 6.86641 25.9865C7.06935 26.8193 7.31375 27.6445 7.46344 28.4866C7.6123 29.3241 7.666 30.1786 7.76139 31.0252C9.61219 31.0252 11.4527 31.0252 13.3092 31.0252C13.3719 30.6514 13.4335 30.2834 13.4982 29.8624ZM3.65585 22.7522C3.69637 23.1208 3.73688 23.4894 3.77813 23.8646C5.49994 23.8646 7.20768 23.8646 8.93456 23.8646C9.15163 22.226 9.45936 20.6143 9.93004 19.0328C9.23189 18.9386 8.87709 19.2789 8.96369 19.9139C8.38119 19.9888 8.21458 20.1115 8.15677 20.5082C8.10263 20.8795 8.30076 21.1542 8.76929 21.3575C8.5808 21.8046 8.29521 21.9676 7.73086 21.9501C7.32585 21.9376 7.03896 21.7115 6.89201 21.2891C7.4408 21.1741 7.66108 20.9625 7.65462 20.5563C7.64938 20.2268 7.46049 20.0679 6.96187 19.9653C6.97365 19.7842 6.99619 19.6053 6.9946 19.4266C6.99142 19.0701 6.80984 18.9204 6.4355 18.898C6.04959 18.8749 5.81099 19.1279 5.82322 19.4122C5.83131 19.6001 5.8515 19.7875 5.86676 19.9813C5.83898 19.9871 5.81073 19.9959 5.78194 19.9984C5.41299 20.0308 5.20344 20.2076 5.1741 20.5125C5.14041 20.8626 5.34264 21.1451 5.68774 21.2296C5.77122 21.25 5.85489 21.2697 5.94111 21.2904C5.73727 21.7989 5.45983 21.965 4.86251 21.9501C4.48496 21.9407 4.19189 21.7205 4.05922 21.3465C4.51753 21.1963 4.71684 20.921 4.66661 20.5074C4.61863 20.1124 4.43532 19.9773 3.86574 19.9173C3.92735 19.2691 3.57668 18.9358 2.90575 19.0312C2.97964 19.3135 3.0531 19.5937 3.12628 19.874C3.36869 20.8022 3.59972 21.7326 3.65585 22.7522ZM13.0435 20.8323C13.053 20.7518 13.0714 20.6711 13.0705 20.5907C13.0659 20.1847 12.8383 19.9388 12.4374 19.9374C12.3811 19.9372 12.3249 19.9251 12.2696 19.9187C12.3144 19.2602 11.8863 18.8776 11.3028 19.056C11.7881 20.6201 12.0945 22.2196 12.1639 23.8582C13.9082 23.8582 15.613 23.8582 17.3425 23.8582C17.5581 22.216 17.8644 20.6063 18.3368 19.0284C17.6408 18.9409 17.37 19.1952 17.3502 19.9227C16.8048 19.9647 16.627 20.0891 16.5794 20.462C16.5193 20.9334 16.68 21.1709 17.1848 21.3569C16.9804 21.8468 16.6063 21.997 16.0503 21.9493C15.7063 21.9198 15.4064 21.6506 15.3119 21.2927C15.8804 21.1469 16.0567 20.9852 16.0437 20.5808C16.0398 20.4579 15.9893 20.326 15.9266 20.2178C15.8024 20.0035 15.5591 20.0144 15.3626 19.9745C15.3838 19.794 15.4129 19.6343 15.4192 19.4736C15.4315 19.1565 15.2215 18.8748 14.7995 18.8982C14.4175 18.9194 14.2192 19.0968 14.2232 19.4813C14.2249 19.6477 14.2592 19.8137 14.2785 19.9785C14.1623 19.9968 14.0603 19.9986 13.9683 20.0301C13.7255 20.1133 13.5595 20.3506 13.5659 20.5832C13.5739 20.8755 13.7608 21.1317 14.0377 21.2186C14.1365 21.2497 14.2402 21.2648 14.3447 21.2879C14.1205 21.82 13.842 21.982 13.2356 21.9501C12.8805 21.9314 12.5816 21.6905 12.4757 21.3377C12.8606 21.2035 12.895 21.1742 13.0435 20.8323ZM12.8492 15C15.0041 15 17.159 15 19.3325 15C19.3663 14.7061 19.3979 14.4309 19.4315 14.1379C13.5476 14.1379 7.69255 14.1379 1.80199 14.1379C1.83535 14.4297 1.86675 14.7044 1.90053 15C5.54505 15 9.16677 15 12.8492 15ZM11.5441 5.53224C11.7726 6.91824 11.7987 8.31433 11.7495 9.71361C12.4957 9.92818 12.7723 10.2507 12.7478 10.8761C12.7255 11.443 12.4409 11.7402 11.7913 11.862C11.897 12.0916 12.0833 12.2234 12.2994 12.3159C12.6654 12.4727 13.0512 12.4796 13.4323 12.4081C13.7258 12.3531 13.9729 12.2026 14.1009 11.9029C13.2972 11.6587 13.0207 11.4041 13.0169 10.8309C13.0125 10.1617 13.4456 9.85566 14.032 9.72959C14.0373 7.97399 12.7281 5.8592 11.5367 5.33059C11.5367 5.38583 11.5367 5.43421 11.5441 5.53224ZM8.87202 5.94632C7.85851 7.00961 7.29967 8.26932 7.2019 9.73717C7.97737 9.89943 8.20772 10.3629 8.21215 10.7778C8.21863 11.3837 7.94473 11.67 7.13338 11.8975C7.32665 12.3227 7.66422 12.4774 8.39119 12.4363C8.82117 12.412 9.21238 12.2896 9.43654 11.8468C8.87402 11.7726 8.56691 11.5078 8.51001 11.0493C8.47757 10.7879 8.4627 10.5225 8.60019 10.2783C8.8007 9.92209 9.15008 9.79644 9.48981 9.71403C9.46267 8.22958 9.48207 6.77535 9.74589 5.27746C9.39984 5.47848 9.14492 5.68867 8.87202 5.94632ZM15.247 6.92686C15.4409 7.31517 15.6439 7.69926 15.8253 8.09332C15.9429 8.34862 16.0376 8.61565 16.1259 8.88297C16.1725 9.02413 16.1907 9.1763 16.208 9.32511C16.2206 9.43276 16.2105 9.54305 16.2105 9.65202C16.7482 9.77457 17.1988 9.97398 17.2589 10.5739C17.3273 11.2576 17.1211 11.543 16.351 11.8994C16.5989 12.3082 16.9761 12.4466 17.4235 12.4388C17.8218 12.4318 18.1684 12.3171 18.3977 11.9241C17.8855 11.7808 17.6114 11.4591 17.5678 10.9462C17.5252 10.444 17.6571 10.0244 18.1192 9.77468C17.8131 8.30591 15.9269 6.14009 14.1504 5.55063C14.4912 5.97675 14.8565 6.43358 15.247 6.92686ZM3.37439 11.6444C3.20394 11.7448 3.03349 11.8452 2.84864 11.9541C3.11188 12.3758 3.52261 12.4693 3.97097 12.4344C4.35029 12.4049 4.68562 12.2675 4.88237 11.8763C4.31999 11.7178 3.9824 11.3937 3.95886 10.8034C3.92925 10.0608 4.40594 9.77965 5.03842 9.64413C5.00642 9.25203 5.03066 8.89243 5.27029 8.58332C5.29271 8.55441 5.28766 8.50511 5.299 8.46635C5.54143 7.63783 5.95755 6.90407 6.51031 6.24658C6.70302 6.01736 6.90581 5.79669 7.104 5.57211C6.98413 5.57749 6.88311 5.61463 6.78727 5.66228C5.46936 6.31748 4.42894 7.27769 3.66106 8.53541C3.42473 8.92249 3.21118 9.32036 3.11551 9.77647C3.3793 9.92819 3.58408 10.1351 3.63 10.4279C3.69483 10.8412 3.70458 11.2599 3.37439 11.6444Z" fill="#ADBE8F"/>
<path d="M137.061 17.2244C136.518 17.253 135.974 17.253 135.41 17.253C135.41 17.1287 135.41 17.0295 135.41 16.9303C135.41 15.8338 135.412 14.7373 135.409 13.6408C135.409 13.5206 135.398 13.3982 135.374 13.2807C135.257 12.7098 134.892 12.4045 134.362 12.3747C133.705 12.3377 133.292 12.7855 133.184 13.2545C133.146 13.4203 133.126 13.5941 133.125 13.7643C133.12 14.8202 133.123 15.8761 133.123 16.932C133.123 17.031 133.123 17.1301 133.123 17.2422C132.55 17.2422 131.999 17.2422 131.435 17.2422C131.435 15.1607 131.435 13.0929 131.435 10.9848C131.696 10.9819 131.964 10.9779 132.232 10.9764C132.494 10.975 132.756 10.9761 133.056 10.9761C133.056 11.1984 133.056 11.4124 133.056 11.6605C133.25 11.4868 133.393 11.3337 133.56 11.2125C134.399 10.6024 135.977 10.6699 136.647 11.6315C136.827 11.8907 136.972 12.1652 137.039 12.4906C137.061 14.0638 137.061 15.6298 137.061 17.2244Z" fill="#ADBE8F"/>
<path d="M42.8419 16.641C42.8419 15.656 42.8446 14.701 42.8395 13.746C42.8385 13.555 42.8286 13.3593 42.7866 13.174C42.6103 12.3983 41.6331 12.1017 41.0341 12.6271C40.6804 12.9373 40.6002 13.3454 40.597 13.778C40.5891 14.8549 40.5944 15.9318 40.5944 17.0087C40.5944 17.0789 40.5944 17.149 40.5944 17.2376C40.043 17.2376 39.5026 17.2376 38.9333 17.2376C38.9333 17.1471 38.9333 17.059 38.9333 16.9709C38.9333 15.9549 38.9361 14.939 38.9311 13.9231C38.93 13.6916 38.9143 13.4585 38.8838 13.2291C38.8031 12.6224 38.2043 12.2517 37.5661 12.4036C37.0189 12.5339 36.6928 12.9547 36.6872 13.5588C36.681 14.2293 36.6858 14.8998 36.6858 15.5704C36.6858 16.1178 36.6858 16.6653 36.6858 17.2343C36.1227 17.2343 35.5722 17.2343 35.0029 17.2343C35.0029 15.1651 35.0029 13.0884 35.0029 10.994C35.5291 10.994 36.06 10.994 36.6167 10.994C36.6167 11.1841 36.6167 11.372 36.6167 11.6446C37.1474 11.0191 37.7901 10.7823 38.5058 10.8027C39.2365 10.8236 39.8666 11.0931 40.2261 11.7459C40.3797 11.6074 40.5362 11.4665 40.6925 11.3255C41.0109 11.0381 41.3872 10.8881 41.8091 10.8316C42.4182 10.75 42.9966 10.8248 43.5232 11.1581C44.1459 11.5523 44.4582 12.1516 44.4731 12.8643C44.5034 14.3154 44.4822 15.7677 44.4822 17.2377C43.9401 17.2377 43.4089 17.2377 42.8419 17.2377C42.8419 17.0502 42.8419 16.8606 42.8419 16.641Z" fill="#ADBE8F"/>
<path d="M107.128 13.8783C107.247 14.2218 107.356 14.5431 107.464 14.8645C107.482 14.8627 107.499 14.861 107.517 14.8592C107.884 13.5744 108.252 12.2895 108.623 10.992C109.183 10.992 109.735 10.992 110.332 10.992C109.681 13.0809 109.034 15.1583 108.384 17.2437C107.808 17.2437 107.245 17.2437 106.663 17.2437C106.194 15.8708 105.725 14.4972 105.229 13.0447C104.745 14.4858 104.284 15.8597 103.819 17.2436C103.241 17.2436 102.667 17.2436 102.074 17.2436C101.414 15.1687 100.754 13.091 100.086 10.9893C100.701 10.9893 101.275 10.9893 101.893 10.9893C102.26 12.2649 102.632 13.5575 103.005 14.8502C103.021 14.854 103.038 14.8578 103.055 14.8615C103.491 13.5739 103.927 12.2864 104.366 10.9899C104.97 10.9899 105.564 10.9899 106.174 10.9899C106.488 11.9439 106.803 12.9001 107.128 13.8783Z" fill="#ADBE8F"/>
<path d="M97.5657 15.6812C97.7009 15.5897 97.8343 15.5256 97.9258 15.4238C98.3368 14.9663 98.255 14.3114 97.7339 13.9812C97.5425 13.8599 97.316 13.7797 97.0947 13.7234C96.4804 13.5672 95.8473 13.4743 95.2461 13.2802C94.4948 13.0377 93.9197 12.5507 93.6451 11.7793C93.2402 10.6418 93.6255 9.4185 94.601 8.70021C95.189 8.26718 95.8459 8.05309 96.5782 8.04621C97.1301 8.04102 97.6686 8.10011 98.1765 8.31863C99.0849 8.70941 99.6429 9.3969 99.8624 10.4001C99.3344 10.5637 98.8124 10.7255 98.2939 10.8861C98.1952 10.6723 98.1264 10.4684 98.0149 10.2916C97.6464 9.70726 96.8734 9.52657 96.2772 9.66221C95.9948 9.72645 95.7432 9.84451 95.5429 10.0575C95.0426 10.5896 95.2172 11.3871 95.9009 11.6422C96.1353 11.7297 96.3881 11.77 96.6345 11.8227C97.2145 11.9466 97.8109 12.0048 98.3588 12.2567C99.4448 12.7561 100.033 13.6158 99.9813 14.7585C99.9315 15.8549 99.3467 16.6627 98.3618 17.1025C97.1641 17.6374 95.933 17.5916 94.7656 16.993C93.8274 16.5119 93.2945 15.7031 93.1563 14.6458C93.1553 14.6374 93.164 14.6278 93.1802 14.5926C93.6942 14.4556 94.2258 14.3139 94.788 14.164C94.8917 14.8764 95.2012 15.4186 95.8663 15.6859C96.4219 15.9091 96.9844 15.9327 97.5657 15.6812Z" fill="#ADBE8F"/>
<path d="M29.6475 8.23291C31.054 8.23291 32.4301 8.23291 33.8281 8.23291C33.8281 8.78588 33.8281 9.32826 33.8281 9.90372C32.5558 9.90372 31.2761 9.90372 29.9793 9.90372C29.9793 10.5828 29.9793 11.2296 29.9793 11.8811C29.9809 11.8828 29.9872 11.8904 29.9945 11.897C30.002 11.9038 30.0094 11.9127 30.0185 11.9152C30.0378 11.9207 30.0581 11.9255 30.078 11.9255C31.2011 11.926 32.3242 11.9259 33.4664 11.9259C33.4664 12.4607 33.4664 12.9832 33.4664 13.5343C32.3094 13.5343 31.1506 13.5343 29.9769 13.5343C29.9769 14.2193 29.9769 14.8762 29.9769 15.5392C29.9791 15.5412 29.9861 15.548 29.9935 15.5543C30.0013 15.5608 30.0086 15.5699 30.0176 15.5725C30.0368 15.5781 30.0571 15.5834 30.0769 15.5834C31.3217 15.5839 32.5664 15.5838 33.8305 15.5838C33.8305 16.1381 33.8305 16.681 33.8305 17.2402C31.9655 17.2402 30.098 17.2402 28.2148 17.2402C28.2148 14.2423 28.2148 11.2512 28.2148 8.23291C28.6909 8.23291 29.154 8.23291 29.6475 8.23291Z" fill="#ADBE8F"/>
<path d="M121.851 11.4526C121.874 10.3243 121.874 9.20842 121.874 8.07129C122.437 8.07129 122.978 8.07129 123.563 8.07129C123.563 8.16761 123.563 8.27468 123.563 8.38174C123.563 10.7786 123.561 13.1755 123.565 15.5724C123.566 16.1182 123.586 16.6638 123.598 17.2492C123.353 17.2515 123.085 17.2549 122.817 17.2562C122.554 17.2574 122.292 17.2564 121.99 17.2564C121.962 17.0641 121.935 16.8746 121.907 16.6869C121.884 16.6879 121.87 16.6846 121.867 16.6893C121.175 17.56 119.76 17.5646 118.853 17.1116C118.127 16.7488 117.637 16.1826 117.371 15.4245C116.986 14.3267 117.043 13.2495 117.643 12.2434C118.261 11.2072 119.21 10.7687 120.399 10.8404C120.722 10.8599 121.047 10.9047 121.327 11.0839C121.503 11.1965 121.662 11.3369 121.851 11.4526ZM119.311 15.4026C119.377 15.4637 119.439 15.5311 119.51 15.5849C120.132 16.0519 121.162 15.9248 121.594 15.2284C121.909 14.7203 121.983 14.1705 121.856 13.5995C121.681 12.8117 121.137 12.4247 120.503 12.3794C119.667 12.3196 119.098 12.8788 118.956 13.5027C118.901 13.7454 118.894 14.0017 118.888 14.2523C118.878 14.6714 119.01 15.0471 119.311 15.4026Z" fill="#ADBE8F"/>
<path d="M49.1917 17.4145C48.6606 17.4238 48.1752 17.3448 47.7471 17.0618C47.5637 16.9405 47.4047 16.7821 47.2087 16.6189C47.1775 16.8163 47.2107 17.0237 47.1877 17.2392C46.6447 17.2392 46.1142 17.2392 45.5693 17.2392C45.5693 14.1825 45.5693 11.1313 45.5693 8.06494C46.1077 8.06494 46.6401 8.06494 47.1969 8.06494C47.1969 9.21252 47.1969 10.3646 47.1969 11.5582C47.2708 11.518 47.3165 11.5053 47.3448 11.4758C47.6579 11.1504 48.0453 10.9684 48.4812 10.8837C48.9739 10.788 49.4671 10.7931 49.9506 10.9313C50.736 11.1559 51.3087 11.6531 51.6285 12.3984C52.1417 13.5942 52.1417 14.7964 51.5223 15.9607C51.0836 16.7854 50.3794 17.2484 49.4574 17.378C49.3777 17.3892 49.2984 17.4022 49.1917 17.4145ZM47.2154 13.8929C47.2386 14.1727 47.2223 14.4629 47.2926 14.7302C47.4811 15.4472 48.1023 15.8809 48.8186 15.8616C49.477 15.8438 50.0818 15.3115 50.1856 14.6949C50.2338 14.4084 50.2721 14.1095 50.2442 13.8232C50.1872 13.2406 49.9433 12.7499 49.3745 12.4992C48.8213 12.2554 48.2882 12.3157 47.8066 12.6817C47.4301 12.9679 47.2755 13.3819 47.2154 13.8929Z" fill="#ADBE8F"/>
<path d="M32.7185 21.612C33.454 21.7475 34.093 22.0338 34.6347 22.5154C35.1696 22.9909 35.516 23.5895 35.7182 24.2742C35.7292 24.3115 35.725 24.3534 35.7299 24.4211C35.3538 24.5545 34.9774 24.688 34.6212 24.8143C34.4585 24.4807 34.3344 24.1471 34.1457 23.8555C33.7124 23.1857 33.0675 22.838 32.2857 22.7428C31.3165 22.6248 30.4391 22.8384 29.7 23.5047C29.1292 24.0191 28.8168 24.6789 28.6895 25.427C28.5746 26.1021 28.6007 26.7738 28.7851 27.4386C29.1846 28.8795 30.4434 29.7601 31.7948 29.7616C32.9949 29.763 34.1022 29.0776 34.5288 27.8864C34.5592 27.8014 34.5996 27.72 34.6488 27.6057C35.015 27.7395 35.3792 27.8727 35.7696 28.0154C35.6493 28.4375 35.4873 28.824 35.2495 29.1769C34.5134 30.269 33.4756 30.8135 32.1761 30.9181C31.4882 30.9734 30.8236 30.8953 30.1865 30.6534C28.7496 30.1078 27.8465 29.0591 27.4819 27.574C27.2033 26.4394 27.2469 25.2999 27.7133 24.2131C28.3093 22.8249 29.3631 21.9743 30.8322 21.6376C31.4516 21.4956 32.0712 21.5036 32.7185 21.612Z" fill="#ADBE8F"/>
<path d="M129.131 17.0997C127.885 17.653 126.704 17.5806 125.618 16.7757C124.823 16.1856 124.461 15.3429 124.415 14.3608C124.388 13.8001 124.436 13.2513 124.653 12.7221C125.212 11.3621 126.549 10.6229 127.964 10.8221C128.496 10.8971 128.99 11.0495 129.419 11.3677C130.045 11.8311 130.375 12.4844 130.489 13.2396C130.553 13.665 130.549 14.1008 130.578 14.5596C129.061 14.5596 127.588 14.5596 126.114 14.5596C126.129 15.2193 126.564 15.743 127.219 15.9127C128.01 16.1178 128.564 15.859 129.068 15.0231C129.527 15.1575 129.996 15.295 130.482 15.4375C130.255 16.1787 129.824 16.7308 129.131 17.0997ZM128.416 12.4808C127.71 11.9428 126.465 12.1268 126.157 13.2043C126.143 13.256 126.156 13.3155 126.156 13.3707C127.065 13.3707 127.959 13.3707 128.855 13.3707C128.828 12.9774 128.738 12.7857 128.416 12.4808Z" fill="#ADBE8F"/>
<path d="M112.264 11.0222C113.072 10.6943 113.87 10.719 114.652 10.9957C115.63 11.3415 116.184 12.0786 116.4 13.077C116.505 13.5604 116.559 14.0518 116.454 14.5692C114.989 14.5692 113.514 14.5692 112.04 14.5692C112.065 15.3175 112.651 15.809 113.236 15.9314C114.004 16.0918 114.567 15.8142 114.982 15.034C115.459 15.1183 115.915 15.3057 116.41 15.4357C116.281 15.9523 116.017 16.374 115.633 16.7105C115.073 17.2023 114.409 17.4275 113.663 17.443C112.954 17.4577 112.298 17.2964 111.714 16.8982C111.035 16.4351 110.608 15.7912 110.435 14.9799C110.228 14.0128 110.327 13.0927 110.842 12.236C111.175 11.6807 111.648 11.2839 112.264 11.0222ZM114.301 13.3918C114.468 13.389 114.635 13.3862 114.802 13.3834C114.741 12.5568 114.112 12.1468 113.313 12.1956C112.665 12.2352 112.105 12.7756 112.101 13.3918C112.814 13.3918 113.528 13.3918 114.301 13.3918Z" fill="#ADBE8F"/>
<path d="M83.1746 17.3174C81.9526 17.613 80.8613 17.4133 79.9386 16.566C79.4017 16.0731 79.1025 15.4358 78.9894 14.7127C78.886 14.051 78.9428 13.4055 79.1934 12.7833C79.6205 11.7226 80.414 11.0859 81.5162 10.861C82.4398 10.6725 83.327 10.8133 84.117 11.357C84.982 11.9522 85.4182 12.8025 85.4887 13.8412C85.5383 14.5724 85.4181 15.2743 85.0292 15.9098C84.5993 16.6121 83.9906 17.0837 83.1746 17.3174ZM83.3687 12.8832C83.3401 12.8545 83.3103 12.8269 83.2831 12.7969C82.7376 12.1949 81.561 12.1696 80.9813 12.995C80.5591 13.5962 80.5549 14.637 80.9781 15.2367C81.567 16.0711 82.8036 16.1005 83.4227 15.2973C83.9226 14.6488 83.9123 13.5352 83.3687 12.8832Z" fill="#ADBE8F"/>
<path d="M57.6541 11.7084C57.9716 12.1521 58.095 12.6307 58.0923 13.1518C58.0869 14.1673 58.0851 15.1828 58.0938 16.1982C58.0967 16.5411 58.1355 16.8836 58.1588 17.2404C57.6636 17.2404 57.1516 17.2404 56.5969 17.2404C56.5758 17.0449 56.5541 16.8427 56.5296 16.6155C56.4841 16.6513 56.4486 16.6689 56.4274 16.6973C55.7893 17.5478 54.0892 17.7823 53.1081 16.8316C52.2767 16.026 52.3888 14.6259 53.3989 13.9978C53.685 13.8199 53.9946 13.705 54.3277 13.6546C54.8553 13.5748 55.3833 13.4971 55.91 13.412C56.0175 13.3946 56.1285 13.3639 56.2237 13.3126C56.3893 13.2234 56.4551 13.0589 56.4199 12.8735C56.369 12.6054 56.222 12.4005 55.9702 12.3019C55.5158 12.124 55.0668 12.1179 54.6472 12.4125C54.3918 12.5918 54.2758 12.8533 54.2121 13.1869C53.698 13.1116 53.2003 12.9797 52.6839 12.8745C52.8423 11.9621 53.3328 11.3496 54.1542 11.0263C55.0801 10.6619 56.01 10.7022 56.9172 11.1064C57.2047 11.2345 57.4544 11.4276 57.6541 11.7084ZM56.3558 14.4594C56.127 14.4971 55.8979 14.5328 55.6696 14.5731C55.3724 14.6256 55.0694 14.659 54.781 14.7426C54.4753 14.8312 54.2689 15.1378 54.266 15.4245C54.263 15.7194 54.4738 16.0188 54.7825 16.0974C55.2377 16.2132 55.6692 16.1422 56.0225 15.8131C56.4153 15.4474 56.4607 14.969 56.3558 14.4594Z" fill="#ADBE8F"/>
<path d="M71.701 17.8737C71.9245 17.3842 72.1386 16.9159 72.3481 16.4578C71.4645 14.6328 70.589 12.8242 69.6992 10.9863C70.3675 10.9863 70.982 10.9863 71.6246 10.9863C72.1574 12.1575 72.6968 13.3429 73.2587 14.578C73.5562 13.9682 73.7764 13.3646 74.0295 12.7763C74.2847 12.1832 74.5299 11.5859 74.781 10.9867C75.3893 10.9867 75.9827 10.9867 76.6197 10.9867C75.3073 13.9112 74.0049 16.8132 72.7003 19.7203C72.1037 19.7203 71.5182 19.7203 70.8891 19.7203C71.1325 19.0916 71.4384 18.5042 71.701 17.8737Z" fill="#ADBE8F"/>
<path d="M36.3809 25.7272C36.3809 24.3168 36.3809 22.9369 36.3809 21.54C36.7954 21.54 37.1939 21.54 37.6176 21.54C37.6176 22.7616 37.6176 23.9734 37.6176 25.2086C37.6714 25.1807 37.7022 25.174 37.7188 25.1548C38.136 24.6713 38.6788 24.4615 39.2995 24.4547C39.5793 24.4517 39.8701 24.4678 40.1379 24.5412C40.9422 24.7618 41.3736 25.3453 41.5508 26.1321C41.6058 26.3764 41.6219 26.6337 41.6234 26.8853C41.6307 28.0635 41.6267 29.2417 41.6267 30.4199C41.6267 30.5208 41.6267 30.6217 41.6267 30.7444C41.2239 30.7444 40.8363 30.7444 40.4254 30.7444C40.4205 30.6446 40.4117 30.5468 40.4116 30.4489C40.4106 29.3418 40.4136 28.2347 40.4083 27.1276C40.4074 26.9475 40.3803 26.7661 40.3502 26.5879C40.2098 25.756 39.4978 25.4832 38.8475 25.5625C38.0307 25.6622 37.6348 26.3234 37.6217 27.0895C37.6029 28.1963 37.6169 29.3037 37.6169 30.4108C37.6169 30.5201 37.6169 30.6294 37.6169 30.752C37.1979 30.752 36.8075 30.752 36.3809 30.752C36.3809 29.0813 36.3809 27.4195 36.3809 25.7272Z" fill="#ADBE8F"/>
<path d="M62.5853 12.924C62.4589 12.9311 62.4644 12.8483 62.4397 12.7845C62.2372 12.2617 61.7688 12.01 61.2318 12.1353C61.0157 12.1857 60.8412 12.2971 60.7413 12.5038C60.6237 12.7469 60.6949 13.0008 60.9318 13.1272C61.0542 13.1925 61.1912 13.2367 61.3266 13.2696C61.6304 13.3433 61.9386 13.3983 62.2425 13.4714C62.7418 13.5915 63.204 13.7916 63.5511 14.1864C64.107 14.8188 64.1278 15.8172 63.6205 16.5249C63.3109 16.9566 62.8901 17.2239 62.3863 17.3453C61.727 17.5042 61.0666 17.4937 60.4191 17.2638C59.5961 16.9717 59.1125 16.3892 58.9258 15.4973C59.4145 15.3875 59.8911 15.2803 60.3851 15.1692C60.4094 15.2395 60.4326 15.2915 60.4454 15.346C60.6132 16.0583 61.4714 16.3041 62.0302 16.0064C62.448 15.7839 62.4585 15.2874 62.046 15.0601C61.9245 14.9931 61.7846 14.9547 61.649 14.9192C61.269 14.8199 60.885 14.736 60.5063 14.6325C60.2011 14.5491 59.9342 14.3899 59.6914 14.1836C58.8384 13.4587 58.9469 12.0573 59.8364 11.3331C60.7443 10.5939 62.2584 10.649 63.098 11.2588C63.5494 11.5867 63.824 12.0281 63.911 12.6187C63.4677 12.722 63.0388 12.822 62.5853 12.924Z" fill="#ADBE8F"/>
<path d="M66.0809 15.3676C66.2345 16.009 67.0348 16.2628 67.5668 16.0514C67.8016 15.9581 67.9579 15.7997 67.9711 15.5374C67.9848 15.2639 67.8151 15.0969 67.5866 15.0148C67.3225 14.9198 67.0436 14.8645 66.7693 14.7994C66.3963 14.7109 66.0268 14.6197 65.6818 14.4395C64.5302 13.8376 64.512 12.3469 65.2242 11.5796C65.8429 10.913 66.6127 10.7249 67.4829 10.8159C67.8483 10.854 68.2024 10.9346 68.5206 11.1191C69.0842 11.4462 69.4395 11.9275 69.5391 12.6237C69.0792 12.7282 68.6125 12.8342 68.1257 12.9448C68.0894 12.8468 68.0629 12.7629 68.0279 12.6828C67.7931 12.1465 67.0911 11.9392 66.5966 12.2511C66.3927 12.3798 66.3057 12.5556 66.3352 12.789C66.3623 13.0037 66.5023 13.1357 66.6958 13.1963C66.9069 13.2625 67.1273 13.2979 67.3415 13.3547C67.7114 13.4528 68.0969 13.5168 68.445 13.667C69.1714 13.9807 69.6571 14.5763 69.611 15.4771C69.5762 16.1594 69.2613 16.6971 68.6845 17.0623C67.794 17.626 66.1864 17.584 65.3374 16.8732C64.9085 16.5142 64.6563 16.0651 64.5732 15.4901C65.0601 15.382 65.5291 15.2779 66.0124 15.1706C66.0356 15.2379 66.0542 15.2915 66.0809 15.3676Z" fill="#ADBE8F"/>
<path d="M89.5816 7.99394C89.6853 8.02194 89.7612 8.0458 89.8498 8.07364C89.8498 8.54821 89.8498 9.02029 89.8498 9.48934C89.6019 9.48934 89.3613 9.46168 89.1296 9.49544C88.7213 9.55492 88.4865 9.83463 88.4694 10.2406C88.4596 10.4723 88.4676 10.7047 88.4676 10.9656C88.9315 10.9656 89.381 10.9656 89.8473 10.9656C89.8473 11.4765 89.8473 11.9586 89.8473 12.4725C89.3978 12.4725 88.9473 12.4725 88.4795 12.4725C88.4795 14.0743 88.4795 15.6447 88.4795 17.2357C87.9014 17.2357 87.341 17.2357 86.7499 17.2357C86.7499 15.6632 86.7499 14.0863 86.7499 12.4772C86.3921 12.4772 86.0633 12.4772 85.7246 12.4772C85.7246 11.9697 85.7246 11.4944 85.7246 10.9916C86.0482 10.9916 86.3772 10.9916 86.7458 10.9916C86.7458 10.6952 86.7439 10.4253 86.7462 10.1554C86.7499 9.72127 86.8554 9.31484 87.0827 8.94297C87.4751 8.30104 88.0679 8.00666 88.7973 7.96798C89.0484 7.95467 89.3016 7.98138 89.5816 7.99394Z" fill="#ADBE8F"/>
<path d="M63.3157 29.8677C63.3299 30.1779 63.344 30.4585 63.3587 30.7497C62.9709 30.7497 62.5914 30.7497 62.1784 30.7497C62.1588 30.5121 62.1403 30.2875 62.1213 30.0572C62.0067 30.1625 61.9038 30.2537 61.8047 30.3489C61.0614 31.0632 59.6624 31.1612 58.8375 30.5184C58.2869 30.0893 58.0634 29.5205 58.1484 28.8331C58.2318 28.1584 58.6201 27.7096 59.2267 27.4397C59.6854 27.2355 60.1835 27.2083 60.6702 27.1323C60.9786 27.0841 61.2889 27.0475 61.597 26.9975C62.028 26.9274 62.1562 26.7181 62.0514 26.2899C61.9615 25.9226 61.7301 25.6891 61.3831 25.5692C61.0817 25.4651 60.7702 25.455 60.4577 25.5145C59.9515 25.6109 59.6406 25.925 59.4849 26.4064C59.4546 26.5002 59.4344 26.5973 59.4059 26.7071C59.0236 26.6187 58.6536 26.533 58.2643 26.4429C58.292 25.964 58.4841 25.565 58.8008 25.223C59.1858 24.8071 59.6673 24.5715 60.2224 24.4803C60.9061 24.3681 61.5707 24.4208 62.1992 24.7308C62.9113 25.082 63.2643 25.6874 63.2882 26.4586C63.323 27.5842 63.3089 28.7114 63.3157 29.8677ZM60.3188 29.9121C60.4983 29.8943 60.6811 29.8922 60.8568 29.8557C61.3368 29.756 61.7057 29.4994 61.9127 29.0408C62.0792 28.6719 62.1043 28.2829 62.0664 27.8659C61.4145 27.9665 60.7706 28.06 60.1295 28.1696C59.9956 28.1925 59.8617 28.259 59.7448 28.3325C59.2537 28.6416 59.2495 29.394 59.7389 29.7084C59.8947 29.8084 60.0905 29.8456 60.3188 29.9121Z" fill="#ADBE8F"/>
<path d="M57.4228 30.3543C57.4228 30.5027 57.4228 30.6215 57.4228 30.7533C57.0104 30.7533 56.6297 30.7533 56.2216 30.7533C56.2163 30.65 56.2072 30.5528 56.2071 30.4556C56.2061 29.3485 56.2096 28.2413 56.2035 27.1342C56.2024 26.9335 56.1822 26.7288 56.1391 26.5329C55.9593 25.7145 55.2708 25.491 54.6504 25.5626C53.8242 25.658 53.4326 26.321 53.4183 27.083C53.3976 28.1898 53.413 29.2972 53.413 30.4043C53.413 30.5145 53.413 30.6247 53.413 30.7495C53.0009 30.7495 52.612 30.7495 52.21 30.7495C52.21 28.7143 52.21 26.6964 52.21 24.6337C52.5938 24.6333 52.9799 24.6242 53.3964 24.6432C53.3964 24.8864 53.3964 25.1123 53.3964 25.3381C53.6643 25.0157 53.9629 24.7725 54.3324 24.6191C55.188 24.2638 56.5051 24.3843 57.096 25.4468C57.3321 25.8714 57.4234 26.3359 57.423 26.8204C57.4222 27.9885 57.4228 29.1565 57.4228 30.3543Z" fill="#ADBE8F"/>
<path d="M67.8494 30.4695C67.1615 30.9672 66.4192 31.0738 65.6453 30.8292C64.7678 30.5518 64.3096 29.8914 64.1528 29.0073C64.1124 28.78 64.1081 28.5443 64.1071 28.3123C64.1027 27.1947 64.1052 26.0771 64.1052 24.9595C64.1052 24.8601 64.1052 24.7606 64.1052 24.6475C64.52 24.6475 64.9087 24.6475 65.3213 24.6475C65.3213 24.7587 65.3213 24.8579 65.3213 24.957C65.3213 26.0645 65.3139 27.172 65.327 28.2793C65.3299 28.5281 65.3748 28.786 65.4524 29.0225C65.6129 29.5115 65.98 29.7776 66.4821 29.8453C66.6404 29.8667 66.8074 29.859 66.9661 29.8354C67.5897 29.7427 67.9948 29.3164 68.0915 28.6596C68.1107 28.5298 68.1138 28.3968 68.114 28.2652C68.1156 27.1679 68.1149 26.0706 68.1149 24.9733C68.1149 24.873 68.1149 24.7727 68.1149 24.6526C68.5194 24.6526 68.9079 24.6526 69.331 24.6526C69.331 24.7574 69.331 24.8655 69.331 24.9737C69.331 26.5891 69.3282 28.2046 69.3336 29.82C69.3346 30.1215 69.3691 30.4228 69.3895 30.7458C68.9979 30.7458 68.6207 30.7458 68.2362 30.7458C68.2086 30.55 68.1827 30.3663 68.1643 30.2358C68.0744 30.3014 67.9698 30.3777 67.8494 30.4695Z" fill="#ADBE8F"/>
<path d="M45.4326 27.8173C44.4664 27.2619 44.2153 25.6297 45.6139 24.7571C46.491 24.2099 47.8382 24.373 48.5109 24.9874C48.8348 25.2832 49.0402 25.6398 49.1589 26.0908C48.8037 26.2251 48.4588 26.3554 48.0987 26.4915C48.0522 26.3737 48.0134 26.272 47.9722 26.1713C47.6665 25.4248 46.6937 25.3298 46.1959 25.6592C45.9504 25.8216 45.7998 26.053 45.8284 26.3435C45.8588 26.6511 46.0623 26.8589 46.36 26.9391C46.72 27.0362 47.0856 27.1134 47.4504 27.1916C47.871 27.2818 48.2673 27.4298 48.598 27.71C49.2341 28.2491 49.3848 29.157 48.9533 29.9139C48.7009 30.3566 48.3271 30.6468 47.8439 30.7981C47.0018 31.0617 46.1893 30.9988 45.4259 30.5453C44.9077 30.2374 44.5803 29.7809 44.4531 29.1416C44.813 29.0131 45.1686 28.8861 45.5176 28.7616C45.5432 28.7884 45.5655 28.8007 45.5683 28.8164C45.7119 29.6339 46.4782 30.0097 47.2725 29.8631C47.4934 29.8223 47.6873 29.7139 47.829 29.5271C48.0606 29.2215 48.0445 28.8459 47.7498 28.6067C47.5983 28.4837 47.4047 28.3964 47.2162 28.3398C46.8984 28.2444 46.5661 28.1986 46.2463 28.1087C45.9765 28.0328 45.7158 27.9241 45.4326 27.8173Z" fill="#ADBE8F"/>
<path d="M51.1453 26.3982C51.1453 27.8589 51.1453 29.2891 51.1453 30.7593C50.7459 30.7743 50.3578 30.7669 49.9492 30.7621C49.9492 28.7221 49.9492 26.6977 49.9492 24.6528C50.3255 24.6528 50.7147 24.6528 51.1453 24.6528C51.1453 25.2195 51.1453 25.7936 51.1453 26.3982Z" fill="#ADBE8F"/>
<path d="M43.795 27.9219C43.795 28.8761 43.795 29.7998 43.795 30.7453C43.4011 30.7453 43.0219 30.7453 42.6201 30.7453C42.6201 28.7222 42.6201 26.6972 42.6201 24.6519C42.9936 24.6519 43.3731 24.6519 43.795 24.6519C43.795 25.7265 43.795 26.809 43.795 27.9219Z" fill="#ADBE8F"/>
<path d="M49.9534 22.9722C49.5406 22.4908 49.6104 21.8569 50.0901 21.5683C50.4452 21.3548 50.899 21.4356 51.1948 21.7439C51.4156 21.974 51.5102 22.4831 51.2509 22.8394C51.0203 23.1563 50.5749 23.2893 50.2028 23.1253C50.1209 23.0891 50.0471 23.0343 49.9534 22.9722Z" fill="#ADBE8F"/>
<path d="M43.681 23.0515C43.4434 23.1892 43.2151 23.236 42.9666 23.1659C42.5444 23.0468 42.3143 22.7173 42.3353 22.2531C42.3528 21.8661 42.6387 21.5322 43.0091 21.4662C43.4444 21.3887 43.8655 21.6167 44.0157 22.0112C44.1518 22.3687 44.0339 22.7527 43.681 23.0515Z" fill="#ADBE8F"/>
<path d="M14.5781 11.4582C14.5864 11.4531 14.607 11.4597 14.6221 11.4789C14.6079 11.4843 14.5991 11.4772 14.5781 11.4582Z" fill="#ADBE8F"/>
</g>
<defs>
<clipPath id="clip0_47_1954">
<rect width="137" height="36" fill="white"/>
</clipPath>
</defs>
</svg>
