<svg width="70" height="61" viewBox="0 0 70 61" fill="none" xmlns="http://www.w3.org/2000/svg">
<g clip-path="url(#clip0_88_282)">
<path d="M24.8169 16.176C24.3106 16.3624 23.7725 16.4471 23.2334 16.4253C22.6943 16.4035 22.1648 16.2757 21.6752 16.0491C21.1856 15.8225 20.7455 15.5015 20.38 15.1047C20.0145 14.7078 19.7309 14.2428 19.5453 13.7362C19.3598 13.2296 19.2759 12.6914 19.2985 12.1523C19.3212 11.6133 19.4499 11.084 19.6772 10.5947C19.9046 10.1055 20.2263 9.66586 20.6237 9.30102C21.0212 8.93618 21.4866 8.65329 21.9935 8.46852L44.4884 0.251311C44.9947 0.0582021 45.5345 -0.0315571 46.076 -0.012671C46.6176 0.00621514 47.1498 0.133364 47.6414 0.361275C48.133 0.589186 48.574 0.913243 48.9384 1.31433C49.3027 1.71542 49.5831 2.18541 49.7628 2.69658C49.9498 3.19351 50.0347 3.72303 50.0124 4.2535C49.9901 4.78397 49.8612 5.30451 49.6332 5.78401C49.4052 6.26352 49.0829 6.69214 48.6856 7.04428C48.2882 7.39642 47.8239 7.66485 47.3205 7.83352L24.8169 16.176Z" fill="#ADBE8F"/>
<path d="M24.8156 28.3711C24.3094 28.5569 23.7716 28.6412 23.2328 28.6191C22.694 28.597 22.1649 28.469 21.6756 28.2423C21.1864 28.0156 20.7466 27.6947 20.3814 27.298C20.0162 26.9013 19.7328 26.4364 19.5473 25.9301C19.3618 25.4238 19.2779 24.8859 19.3005 24.3471C19.323 23.8084 19.4514 23.2794 19.6785 22.7903C19.9055 22.3012 20.2267 21.8616 20.6238 21.4968C21.0208 21.1319 21.4858 20.8488 21.9922 20.6637L44.4871 12.4559C44.9926 12.2605 45.5323 12.1688 46.074 12.1862C46.6157 12.2035 47.1484 12.3296 47.6405 12.5569C48.1325 12.7842 48.5738 13.1081 48.9382 13.5093C49.3026 13.9105 49.5826 14.3809 49.7615 14.8925C49.9491 15.3891 50.0345 15.9185 50.0125 16.4489C49.9905 16.9794 49.8616 17.4999 49.6335 17.9793C49.4054 18.4587 49.0829 18.8871 48.6852 19.2388C48.2875 19.5904 47.8229 19.8582 47.3192 20.0259L24.8156 28.3711Z" fill="#ADBE8F"/>
<path d="M24.8185 40.5645C24.3121 40.7515 23.7738 40.8367 23.2344 40.8154C22.695 40.794 22.1651 40.6664 21.6751 40.4399C21.1851 40.2134 20.7445 39.8925 20.3787 39.4954C20.013 39.0984 19.7291 38.6332 19.5434 38.1263C19.3577 37.6194 19.2739 37.0808 19.2966 36.5415C19.3194 36.0021 19.4483 35.4726 19.6761 34.9831C19.9039 34.4937 20.2259 34.054 20.6239 33.6893C21.0218 33.3245 21.4878 33.0418 21.9952 32.8574L44.49 24.6505C44.9954 24.4549 45.535 24.3629 46.0766 24.3799C46.6183 24.397 47.151 24.5228 47.643 24.7499C48.1351 24.977 48.5765 25.3007 48.9409 25.7018C49.3054 26.1029 49.5854 26.5731 49.7645 27.0846C49.9521 27.5813 50.0374 28.1108 50.0154 28.6413C49.9934 29.1719 49.8645 29.6925 49.6365 30.1719C49.4084 30.6514 49.0859 31.0799 48.6882 31.4317C48.2905 31.7836 47.8259 32.0515 47.3222 32.2194L24.8185 40.5645Z" fill="#ADBE8F"/>
<path d="M0 50.7061H7.45938V52.7579H2.57859V54.4271H7.3304V56.6057H2.57859V58.4028H7.5862V60.5923H0V50.7061Z" fill="#ADBE8F"/>
<path d="M21.9936 50.7061H19.2871V60.5925H21.9936V50.7061Z" fill="#ADBE8F"/>
<path d="M31.7623 50.9609L31.6341 53.0126C29.4498 51.8646 26.1043 52.247 26.1043 55.4578C25.976 58.7957 29.4498 59.306 31.7624 58.1472L31.89 60.3266C27.9049 61.4853 23.2695 60.3266 23.2695 55.4578C23.2695 50.8334 28.0325 49.5468 31.7623 50.9609Z" fill="#ADBE8F"/>
<path d="M39.7316 50.8342L39.6039 52.8859C38.1864 52.1204 35.6186 52.1204 35.6186 53.2688C35.6186 55.0651 40.243 53.7894 40.243 57.5103C40.243 61.1034 35.8745 61.231 33.0398 60.3274L33.1785 58.148C34.9686 58.9241 37.5474 59.1792 37.5474 57.7654C37.5474 56.0963 32.9121 57 32.9121 53.5236C32.9121 50.5788 36.5137 49.8029 39.7316 50.8342Z" fill="#ADBE8F"/>
<path d="M47.8307 50.8342L47.7052 52.8859C46.2891 52.1204 43.7169 52.1204 43.7169 53.2688C43.7169 55.0651 48.3418 53.7894 48.3418 57.5103C48.3418 61.1034 43.9767 61.231 41.1511 60.3274L41.2789 58.148C43.0799 58.9241 45.6482 59.1792 45.6482 57.7654C45.6482 56.0963 41.0234 57 41.0234 53.5236C41.0234 50.5788 44.6132 49.8029 47.8307 50.8342Z" fill="#ADBE8F"/>
<path d="M60.3105 50.7061H63.6446L66.8616 56.9992V50.7061H69.4294V60.5923H66.221L62.7482 54.0445V60.5923H60.3105V50.7061Z" fill="#ADBE8F"/>
<path d="M51.9464 55.5854C51.9464 57.1268 52.5959 58.7958 54.0033 58.7958C55.5493 58.7958 56.1858 57.1268 56.1858 55.5854C56.1858 54.2993 55.5493 52.375 54.0033 52.375C52.5959 52.375 51.9464 54.0439 51.9464 55.5854ZM54.0033 50.4507C56.8398 50.4507 59.0223 51.9922 59.0223 55.5854C59.0223 59.051 56.8398 60.7199 54.0033 60.7199C51.3055 60.7199 49.123 59.051 49.123 55.5854C49.123 51.9922 51.3055 50.4507 54.0033 50.4507Z" fill="#ADBE8F"/>
<path d="M9.51562 50.7061H14.2787C15.6852 50.7061 17.4857 51.2162 17.4857 53.2681C17.5203 53.8221 17.3588 54.3706 17.0296 54.8176C16.7004 55.2646 16.2245 55.5815 15.6852 55.7129C15.8962 55.7791 16.0885 55.8946 16.2459 56.0499C16.4034 56.2052 16.5216 56.3958 16.5907 56.6059C16.5907 56.7335 18.008 60.4649 18.008 60.5925H15.1737L14.1505 57.5096C14.0827 57.3227 13.9599 57.1608 13.7983 57.045C13.6366 56.9293 13.4438 56.8652 13.2451 56.8611C12.7335 56.8611 12.0941 56.7335 12.0941 56.8611V60.5925H9.51562V50.7061ZM12.0941 54.8095H13.5005C13.6619 54.8249 13.8246 54.8068 13.9787 54.7564C14.1327 54.706 14.2747 54.6243 14.3957 54.5166C14.5168 54.4088 14.6143 54.2772 14.6821 54.13C14.75 53.9828 14.7868 53.8232 14.7901 53.6612C14.7901 53.0127 14.2788 52.6299 13.5006 52.6299H12.094L12.0941 54.8095Z" fill="#ADBE8F"/>
</g>
<defs>
<clipPath id="clip0_88_282">
<rect width="69.4306" height="60.7975" fill="white"/>
</clipPath>
</defs>
</svg>
