<svg width="138" height="48" viewBox="0 0 138 48" fill="none" xmlns="http://www.w3.org/2000/svg">
<g clip-path="url(#clip0_88_325)">
<path d="M2.44593 15.1928C3.16822 15.6116 3.95441 15.8227 4.73375 15.8512H4.73604L13.4629 15.8615L9.13368 8.31452L9.12911 8.32023C8.71719 7.65955 8.14095 7.08674 7.41981 6.67025C5.06694 5.30669 2.04428 6.11114 0.672725 8.464C-0.699968 10.818 0.0953497 13.8315 2.44593 15.194V15.1928Z" fill="#ADBE8F"/>
<path d="M10.3828 4.90188C10.3828 5.73599 10.5825 6.52218 10.926 7.21252V7.2148L15.3042 14.7766L19.6847 7.2536V7.25132C20.0282 6.5644 20.2701 5.77935 20.2701 4.94638C20.2747 2.22724 18.0576 0.0124407 15.335 0.00103012C12.6102 -0.0115215 10.3885 2.18388 10.3828 4.90188Z" fill="#ADBE8F"/>
<path d="M23.2145 6.6634C22.4911 7.07988 21.9148 7.65498 21.5006 8.31565H21.4983L17.127 15.8695L25.8275 15.8934L25.8252 15.8866C26.6034 15.8603 27.3874 15.6481 28.1085 15.2316C30.4659 13.8749 31.2806 10.8556 29.9285 8.49252C28.5763 6.1271 25.5696 5.30896 23.2134 6.6634H23.2145Z" fill="#ADBE8F"/>
<path d="M28.1764 18.5896C27.4541 18.1708 26.6679 17.9597 25.8886 17.9312L25.8954 17.9243L17.1777 17.9106L21.5069 25.4587H21.5023C21.9131 26.1457 22.4859 26.6945 23.2071 27.111C25.56 28.4746 28.5803 27.6713 29.9519 25.3184C31.3246 22.9644 30.527 19.952 28.1764 18.5896Z" fill="#ADBE8F"/>
<path d="M20.2098 28.8822C20.2098 28.0481 20.001 27.2619 19.6359 26.5716L19.645 26.575L15.301 19.0166L10.9319 26.5373L10.9296 26.5339C10.5736 27.2151 10.3477 28.0047 10.3477 28.8377C10.3442 31.558 12.5476 33.7716 15.2702 33.783C17.995 33.7956 20.2041 31.5991 20.2087 28.8822H20.2098Z" fill="#ADBE8F"/>
<path d="M7.40872 27.1192C8.13215 26.7027 8.70838 26.1276 9.12259 25.4669L9.12487 25.476L13.4985 17.9359L4.80026 17.9131L4.80254 17.9097C4.03461 17.9416 3.23815 18.1413 2.517 18.5578C0.159569 19.9145 -0.656287 22.9303 0.695867 25.2935C2.04802 27.6589 5.05357 28.4736 7.40986 27.1192H7.40872Z" fill="#ADBE8F"/>
<path d="M49.01 16.9174C48.5639 16.5237 48.031 16.1962 47.4125 15.9315C46.7918 15.6691 46.0912 15.45 45.3084 15.2742C44.0487 14.9684 43.1176 14.6798 42.5197 14.4048C41.9218 14.132 41.6239 13.7532 41.6239 13.2717C41.6239 12.878 41.8031 12.5437 42.1614 12.2698C42.5197 11.9971 43.1564 11.8602 44.0681 11.8602C44.9798 11.8602 45.7762 11.9869 46.4495 12.239C47.1238 12.4889 47.667 12.7696 48.08 13.0754L50.0701 10.3506C49.309 9.78347 48.4543 9.35672 47.5095 9.07031C46.5624 8.78505 45.4168 8.64355 44.0681 8.64355C43.307 8.64355 42.5516 8.75424 41.8031 8.97104C41.0523 9.19012 40.3779 9.50163 39.78 9.90785C39.1809 10.3118 38.6994 10.8173 38.3286 11.4186C37.9577 12.0211 37.7751 12.7034 37.7751 13.4702C37.7751 14.237 37.9315 14.8555 38.2475 15.3929C38.5625 15.9304 38.9664 16.3891 39.4548 16.7725C39.9432 17.1536 40.4703 17.4571 41.0363 17.6739C41.6023 17.8953 42.1454 18.0687 42.6669 18.1999C43.5158 18.3973 44.189 18.5833 44.69 18.7602C45.1886 18.9325 45.5811 19.1082 45.8641 19.2828C46.1448 19.4597 46.3297 19.6399 46.4175 19.8259C46.5054 20.0119 46.5476 20.2128 46.5476 20.433C46.5476 20.9373 46.2966 21.3002 45.7991 21.517C45.2981 21.7361 44.6352 21.8445 43.8091 21.8445C42.8745 21.8445 42.0416 21.687 41.3136 21.3686C40.5844 21.0526 39.982 20.6509 39.5038 20.1694L37.1875 22.698C37.8835 23.4853 38.8078 24.0832 39.9603 24.4872C41.1116 24.8922 42.4067 25.0942 43.8422 25.0942C44.7333 25.0942 45.5766 24.9812 46.3707 24.7496C47.1649 24.5202 47.8587 24.1985 48.4566 23.782C49.0545 23.3678 49.5292 22.8577 49.8772 22.2552C50.223 21.6528 50.3987 20.9807 50.3987 20.2344C50.3987 19.4882 50.2789 18.8492 50.0404 18.314C49.7996 17.7766 49.4584 17.3122 49.0123 16.9185L49.01 16.9174Z" fill="#ADBE8F"/>
<path d="M60.1145 19.6837L55.7442 9.14258H51.3066L58.1884 24.4225L57.7 25.6788C57.3291 26.5962 56.9777 27.2786 56.6388 27.7167C56.3011 28.1549 55.872 28.374 55.3506 28.374C54.9603 28.374 54.634 28.293 54.3715 28.1287C54.1114 27.9643 53.8729 27.7943 53.6549 27.6209L51.9262 30.3469C52.3598 30.7177 52.8665 31.0064 53.4427 31.2164C54.0189 31.4229 54.7412 31.5279 55.6107 31.5279C56.6126 31.5279 57.4387 31.3111 58.0902 30.8718C58.7441 30.4336 59.2918 29.8722 59.7368 29.1807C60.1829 28.4927 60.5572 27.7418 60.8619 26.9305C61.1677 26.1215 61.47 25.3216 61.7759 24.556L68.1669 9.14258H63.9598L60.1133 19.6837H60.1145Z" fill="#ADBE8F"/>
<path d="M78.6062 8.83984C77.9981 8.83984 77.4538 8.90488 76.9757 9.03839C76.4976 9.16733 76.0674 9.33734 75.6874 9.5473C75.3075 9.75383 74.9811 9.97976 74.7084 10.2217C74.438 10.4613 74.204 10.6781 74.0078 10.8983L73.9097 9.14451H70.1738V24.6869H74.0386V16.2282C74.0386 15.6611 74.147 15.1305 74.3318 14.6364C74.5167 14.1446 74.7803 13.7122 75.1078 13.339C75.433 12.9682 75.8289 12.6795 76.2842 12.4684C76.7418 12.263 77.2324 12.1592 77.7539 12.1592C78.6028 12.1592 79.2624 12.4273 79.7964 12.9648C80.3293 13.4999 80.5643 14.2599 80.5643 15.2457V24.688H84.4291V15.2127C84.4291 13.2637 83.9521 11.7153 82.9525 10.5674C81.953 9.41836 80.5187 8.84213 78.6051 8.84213L78.6062 8.83984Z" fill="#ADBE8F"/>
<path d="M101.111 11.4349C100.523 10.6008 99.7449 9.92872 98.7784 9.4141C97.8119 8.89948 96.6309 8.6416 95.2389 8.6416C94.0864 8.6416 93.0378 8.85041 92.0918 9.2669C91.1447 9.68339 90.3312 10.2505 89.6454 10.9739C88.9619 11.6974 88.4279 12.5452 88.0479 13.5185C87.6668 14.4918 87.4785 15.5473 87.4785 16.6872C87.4785 17.9332 87.6679 19.072 88.0479 20.1013C88.429 21.1316 88.9722 22.0137 89.6785 22.7451C90.3848 23.4811 91.2394 24.055 92.239 24.4704C93.2409 24.8846 94.3477 25.0934 95.5675 25.0934C96.7873 25.0934 97.7903 24.9622 98.6495 24.6974C99.5087 24.435 100.215 24.1417 100.768 23.812C101.324 23.4822 101.747 23.1707 102.041 22.8775C102.336 22.5808 102.515 22.4005 102.58 22.3343L100.492 19.9712C100.362 20.1001 100.171 20.2701 99.9229 20.4789C99.6719 20.6855 99.3512 20.8852 98.9598 21.0689C98.5685 21.2549 98.0972 21.4215 97.5415 21.563C96.9881 21.7044 96.3411 21.774 95.6017 21.774C95.1008 21.774 94.5942 21.6885 94.0852 21.5139C93.5729 21.3382 93.1165 21.0871 92.716 20.7574C92.3132 20.4276 91.9868 20.0134 91.7369 19.5513C91.4871 19.0926 91.3627 18.5859 91.3627 17.9846H102.895V17.4734C102.895 16.3791 102.706 15.3054 102.446 14.2556C102.183 13.2047 101.701 12.2622 101.114 11.4315L101.111 11.4349ZM91.3262 15.1536C91.3262 14.8957 91.4117 14.4097 91.5863 14.016C91.7586 13.62 92.0097 13.2903 92.3349 12.9708C92.6623 12.6547 93.0697 12.4014 93.5581 12.1949C94.0487 11.986 94.6067 11.8868 95.2377 11.8868C95.8254 11.8868 96.3468 11.994 96.8033 12.2028C97.2608 12.4094 97.6362 12.6752 97.9283 12.9913C98.2239 13.3108 98.4452 13.62 98.5981 14.0148C98.7488 14.4085 98.8263 14.8957 98.8263 15.1536H91.3262Z" fill="#ADBE8F"/>
<path d="M111.909 20.1778L107.799 9.14258H103.363L109.855 24.6849H113.766L120.226 9.14258H116.018L111.909 20.1778Z" fill="#ADBE8F"/>
<path d="M136.744 13.6831C136.341 12.687 135.781 11.8164 135.062 11.0724C134.346 10.3284 133.481 9.73848 132.469 9.30032C131.459 8.86215 130.344 8.64307 129.126 8.64307C127.909 8.64307 126.794 8.86215 125.784 9.30032C124.772 9.73962 123.907 10.3296 123.191 11.0724C122.472 11.8164 121.913 12.687 121.511 13.6831C121.108 14.6804 120.906 15.7347 120.906 16.8507C120.906 17.9667 121.108 19.0244 121.511 20.0183C121.912 21.0156 122.472 21.8908 123.191 22.645C123.907 23.4015 124.772 23.9972 125.784 24.4342C126.794 24.8723 127.909 25.0914 129.126 25.0914C130.344 25.0914 131.459 24.8723 132.469 24.4342C133.481 23.9972 134.346 23.4015 135.062 22.645C135.781 21.8908 136.34 21.0156 136.744 20.0183C137.145 19.0244 137.347 17.9667 137.347 16.8507C137.347 15.7347 137.146 14.6804 136.744 13.6831ZM133.205 18.5589C133.029 19.1305 132.765 19.6531 132.405 20.137C132.046 20.6162 131.595 21.0076 131.051 21.3008C130.508 21.5975 129.867 21.7458 129.128 21.7458C128.388 21.7458 127.747 21.5986 127.204 21.3008C126.658 21.0076 126.209 20.6162 125.85 20.137C125.49 19.6531 125.225 19.1305 125.051 18.5589C124.875 17.9918 124.79 17.4235 124.79 16.8518C124.79 16.2802 124.876 15.7416 125.051 15.1608C125.225 14.5811 125.49 14.0563 125.85 13.585C126.209 13.1137 126.658 12.7326 127.204 12.4359C127.747 12.1404 128.388 11.9932 129.128 11.9932C129.867 11.9932 130.507 12.1404 131.051 12.4359C131.595 12.7326 132.046 13.1137 132.405 13.585C132.765 14.0563 133.029 14.5811 133.205 15.1608C133.378 15.7405 133.465 16.3064 133.465 16.8518C133.465 17.4235 133.377 17.9918 133.205 18.5589Z" fill="#ADBE8F"/>
<path d="M7.61999 47.2091H6.49719C6.37167 47.2091 6.26898 47.1772 6.1891 47.1144C6.11037 47.0517 6.04989 46.9729 6.0111 46.8794L5.42802 45.2865H2.19311L1.61003 46.8794C1.58151 46.9627 1.5256 47.038 1.4423 47.1064C1.359 47.1749 1.25631 47.2091 1.13421 47.2091H0L3.07287 39.4009H4.55282L7.61999 47.2091ZM5.05489 44.2607L4.10439 41.6636C4.05761 41.5484 4.00854 41.4114 3.95833 41.2528C3.90813 41.0942 3.85792 40.9231 3.80657 40.7393C3.75979 40.9231 3.71072 41.0954 3.66052 41.2551C3.61031 41.4148 3.56124 41.5552 3.51446 41.6739L2.56966 44.2607H5.05375H5.05489Z" fill="#ADBE8F"/>
<path d="M19.806 39.4012V47.2095H18.5257V42.166C18.5257 41.964 18.536 41.7472 18.5577 41.5122L16.198 45.9452C16.0862 46.1574 15.915 46.2635 15.6845 46.2635H15.4791C15.2486 46.2635 15.0775 46.1574 14.9656 45.9452L12.5786 41.4951C12.5888 41.6137 12.5979 41.7313 12.6059 41.8465C12.6128 41.9617 12.6162 42.0679 12.6162 42.1649V47.2083H11.3359V39.4001H12.4325C12.4975 39.4001 12.5534 39.4023 12.6002 39.4058C12.647 39.4092 12.6892 39.4183 12.7269 39.4332C12.7645 39.448 12.7988 39.4708 12.8296 39.5039C12.8604 39.537 12.8901 39.5792 12.9186 39.634L15.2566 43.97C15.3182 44.0853 15.3741 44.2039 15.4266 44.326C15.4791 44.4481 15.5305 44.5748 15.5807 44.7037C15.6309 44.5702 15.6834 44.4424 15.737 44.318C15.7906 44.1937 15.8488 44.0738 15.9093 43.9586L18.2154 39.6328C18.2439 39.5792 18.2747 39.5359 18.3067 39.5028C18.3386 39.4708 18.374 39.4469 18.4116 39.432C18.4493 39.4172 18.4915 39.4081 18.5383 39.4046C18.5851 39.4012 18.641 39.3989 18.706 39.3989H19.8026L19.806 39.4012Z" fill="#ADBE8F"/>
<path d="M23.3255 40.5571V42.7228H26.0583V43.8411H23.3255V46.0502H26.792V47.2106H21.8672V39.4023H26.792V40.5582H23.3255V40.5571Z" fill="#ADBE8F"/>
<path d="M35.3385 43.3059C35.3385 43.8787 35.2427 44.4036 35.0521 44.8828C34.8615 45.3621 34.5934 45.774 34.2477 46.1198C33.9019 46.4655 33.4866 46.7336 33.0005 46.9242C32.5144 47.1148 31.9747 47.2106 31.3802 47.2106H28.4043V39.4023H31.3802C31.9747 39.4023 32.5144 39.4982 33.0005 39.691C33.4866 39.8839 33.9019 40.152 34.2477 40.4955C34.5934 40.8389 34.8615 41.2509 35.0521 41.729C35.2427 42.2082 35.3385 42.7331 35.3385 43.3059ZM33.8471 43.3059C33.8471 42.878 33.7901 42.4935 33.6771 42.1534C33.5642 41.8134 33.3999 41.5259 33.1853 41.2897C32.9708 41.0535 32.7118 40.8732 32.4083 40.7465C32.1036 40.621 31.7613 40.5571 31.379 40.5571H29.8614V46.0547H31.379C31.7602 46.0547 32.1036 45.992 32.4083 45.8653C32.7129 45.7398 32.972 45.5584 33.1853 45.3222C33.3999 45.086 33.563 44.7984 33.6771 44.4584C33.7901 44.1183 33.8471 43.7338 33.8471 43.3059Z" fill="#ADBE8F"/>
<path d="M38.3997 47.2091H36.9414V39.4009H38.3997V47.2091Z" fill="#ADBE8F"/>
<path d="M45.8296 45.3676C45.9084 45.3676 45.9791 45.3984 46.0407 45.4589L46.6136 46.0796C46.2963 46.4722 45.9072 46.7723 45.444 46.9811C44.9818 47.1899 44.4261 47.2937 43.778 47.2937C43.1984 47.2937 42.6769 47.1944 42.2148 46.997C41.7526 46.7996 41.3567 46.5235 41.0292 46.1709C40.7017 45.8183 40.4507 45.3973 40.2761 44.9078C40.1015 44.4183 40.0137 43.8831 40.0137 43.3034C40.0137 42.7238 40.1072 42.1795 40.2944 41.6911C40.4815 41.2039 40.7451 40.7828 41.0851 40.4303C41.4252 40.0777 41.8314 39.8027 42.3026 39.6064C42.7739 39.4101 43.2965 39.312 43.8682 39.312C44.4398 39.312 44.9419 39.4056 45.3824 39.5927C45.8228 39.7798 46.1982 40.0252 46.5086 40.3276L46.0225 41.0031C45.994 41.0464 45.9563 41.0841 45.9118 41.116C45.8673 41.148 45.8045 41.1651 45.7258 41.1651C45.6722 41.1651 45.6163 41.1503 45.5581 41.1194C45.501 41.0886 45.4371 41.051 45.3687 41.0065C45.3002 40.962 45.2215 40.9118 45.1313 40.8581C45.0412 40.8045 44.9373 40.7543 44.8187 40.7098C44.7 40.6653 44.5619 40.6265 44.4056 40.5968C44.2493 40.566 44.0679 40.5512 43.8625 40.5512C43.5133 40.5512 43.1938 40.6128 42.904 40.7372C42.6141 40.8616 42.3643 41.0419 42.1566 41.2769C41.9478 41.5131 41.7857 41.8007 41.6705 42.1407C41.5552 42.4807 41.4982 42.8687 41.4982 43.3046C41.4982 43.7405 41.5598 44.1341 41.6842 44.4764C41.8086 44.8188 41.9763 45.1063 42.1897 45.3402C42.4019 45.5741 42.6518 45.7533 42.9405 45.8777C43.228 46.002 43.5384 46.0637 43.8693 46.0637C44.0667 46.0637 44.2459 46.0534 44.4067 46.0317C44.5665 46.01 44.7148 45.9758 44.8495 45.929C44.9841 45.8822 45.1119 45.8218 45.2329 45.7476C45.3538 45.6734 45.4736 45.5833 45.5923 45.4749C45.6277 45.4429 45.6665 45.4167 45.7053 45.3961C45.7452 45.3767 45.7863 45.3665 45.8296 45.3665V45.3676Z" fill="#ADBE8F"/>
<path d="M55.2148 43.3059C55.2148 43.8787 55.1201 44.4081 54.9319 44.8965C54.7424 45.3849 54.4754 45.8059 54.1297 46.1631C53.784 46.5191 53.3686 46.7975 52.8825 46.9972C52.3964 47.1969 51.8567 47.2973 51.2622 47.2973C50.6677 47.2973 50.1337 47.1969 49.6476 46.9972C49.1615 46.7975 48.745 46.5191 48.397 46.1631C48.0501 45.8071 47.7808 45.3849 47.5891 44.8965C47.3986 44.4093 47.3027 43.8787 47.3027 43.3059C47.3027 42.7331 47.3986 42.2036 47.5891 41.7152C47.7797 41.228 48.049 40.8058 48.397 40.4487C48.7439 40.0927 49.1615 39.8142 49.6476 39.6146C50.1337 39.4149 50.6723 39.3145 51.2622 39.3145C51.6582 39.3145 52.0313 39.3601 52.3804 39.4525C52.7296 39.5438 53.0502 39.6739 53.3412 39.8416C53.6322 40.0094 53.8946 40.2125 54.1274 40.4521C54.3602 40.6917 54.5564 40.9587 54.7185 41.2543C54.8805 41.5498 55.0037 41.8704 55.0882 42.215C55.1726 42.5608 55.2148 42.9248 55.2148 43.3059ZM53.7303 43.3059C53.7303 42.878 53.6733 42.4934 53.558 42.1534C53.4428 41.8134 53.2785 41.5247 53.0662 41.2862C52.854 41.0489 52.595 40.8674 52.2914 40.7408C51.9868 40.6153 51.6445 40.5514 51.2622 40.5514C50.88 40.5514 50.5376 40.6141 50.233 40.7408C49.9283 40.8663 49.6693 41.0489 49.4559 41.2862C49.2414 41.5235 49.0771 41.8122 48.9618 42.1534C48.8466 42.4934 48.7895 42.878 48.7895 43.3059C48.7895 43.7338 48.8466 44.1183 48.9618 44.4583C49.0771 44.7984 49.2414 45.0871 49.4559 45.3221C49.6704 45.5583 49.9295 45.7386 50.233 45.8653C50.5376 45.9908 50.88 46.0547 51.2622 46.0547C51.6445 46.0547 51.9868 45.9919 52.2914 45.8653C52.5961 45.7398 52.854 45.5583 53.0662 45.3221C53.2785 45.0859 53.4428 44.7984 53.558 44.4583C53.6733 44.1183 53.7303 43.7338 53.7303 43.3059Z" fill="#ADBE8F"/>
<path d="M63.2548 39.4015L60.1009 47.2098H58.7887L55.6348 39.4015H56.8009C56.9264 39.4015 57.0291 39.4323 57.109 39.4928C57.1877 39.5544 57.2471 39.6332 57.287 39.7302L59.1287 44.4929C59.1903 44.6481 59.2485 44.8181 59.3044 45.003C59.3603 45.1878 59.4128 45.3818 59.4642 45.5838C59.5075 45.3818 59.5543 45.189 59.6045 45.003C59.6547 44.8181 59.7106 44.647 59.7722 44.4929L61.6025 39.7302C61.631 39.648 61.6881 39.5715 61.7725 39.5031C61.857 39.4346 61.9608 39.4004 62.0829 39.4004H63.2548V39.4015Z" fill="#ADBE8F"/>
<path d="M65.845 40.5571V42.7228H68.5778V43.8411H65.845V46.0502H69.3115V47.2106H64.3867V39.4023H69.3115V40.5582H65.845V40.5571Z" fill="#ADBE8F"/>
<path d="M77.0194 47.2091H75.7071C75.4584 47.2091 75.2792 47.1122 75.1674 46.917L73.5254 44.417C73.4638 44.3234 73.3965 44.2572 73.3235 44.2173C73.2493 44.1774 73.1409 44.158 72.9971 44.158H72.3764V47.2091H70.9238V39.4009H73.3052C73.8347 39.4009 74.2888 39.4557 74.6688 39.5652C75.0488 39.6747 75.3603 39.8288 75.6033 40.0273C75.8464 40.2259 76.0255 40.4621 76.1407 40.7371C76.256 41.0121 76.313 41.3156 76.313 41.6465C76.313 41.9089 76.2742 42.1577 76.1967 42.3916C76.1191 42.6255 76.0072 42.8377 75.8623 43.0283C75.7163 43.2189 75.536 43.3866 75.3226 43.5304C75.1081 43.6741 74.865 43.7883 74.5912 43.8704C74.6848 43.924 74.7715 43.9879 74.8502 44.0621C74.9289 44.1363 75.002 44.223 75.0659 44.3246L77.0205 47.208L77.0194 47.2091ZM73.2824 43.1162C73.5562 43.1162 73.7947 43.0819 73.9978 43.0135C74.2009 42.945 74.3687 42.8503 74.4999 42.7305C74.6311 42.6107 74.7293 42.4669 74.7943 42.3015C74.8593 42.136 74.8913 41.9546 74.8913 41.756C74.8913 41.3601 74.7612 41.0554 74.4999 40.8432C74.2386 40.6309 73.8404 40.5248 73.3041 40.5248H72.3753V43.1173H73.2824V43.1162Z" fill="#ADBE8F"/>
<path d="M86.5015 45.3676C86.5803 45.3676 86.651 45.3984 86.7126 45.4589L87.2854 46.0796C86.9682 46.4722 86.5791 46.7723 86.1158 46.9811C85.6537 47.1899 85.098 47.2937 84.4499 47.2937C83.8702 47.2937 83.3488 47.1944 82.8866 46.997C82.4245 46.7996 82.0286 46.5235 81.7011 46.1709C81.3736 45.8183 81.1226 45.3973 80.948 44.9078C80.7734 44.4183 80.6855 43.8831 80.6855 43.3034C80.6855 42.7238 80.7791 42.1795 80.9662 41.6911C81.1534 41.2039 81.417 40.7828 81.757 40.4303C82.097 40.0777 82.5033 39.8027 82.9745 39.6064C83.4458 39.4101 83.9684 39.312 84.54 39.312C85.1117 39.312 85.6138 39.4056 86.0554 39.5927C86.4958 39.7798 86.8712 40.0252 87.1816 40.3276L86.6955 41.0031C86.667 41.0464 86.6293 41.0841 86.5848 41.116C86.5403 41.148 86.4776 41.1651 86.3988 41.1651C86.3452 41.1651 86.2893 41.1503 86.2311 41.1194C86.174 41.0886 86.1101 41.051 86.0417 41.0065C85.9732 40.962 85.8945 40.9118 85.8043 40.8581C85.7142 40.8045 85.6104 40.7543 85.4917 40.7098C85.373 40.6653 85.2349 40.6265 85.0786 40.5968C84.9223 40.566 84.7409 40.5512 84.5355 40.5512C84.1863 40.5512 83.8668 40.6128 83.577 40.7372C83.2872 40.8616 83.0384 41.0419 82.8296 41.2769C82.6208 41.512 82.4587 41.8007 82.3435 42.1407C82.2283 42.4807 82.1712 42.8687 82.1712 43.3046C82.1712 43.7405 82.2328 44.1341 82.3572 44.4764C82.4816 44.8188 82.6493 45.1063 82.8615 45.3402C83.0738 45.5741 83.3237 45.7533 83.6124 45.8777C83.8999 46.002 84.2103 46.0637 84.5412 46.0637C84.7397 46.0637 84.9177 46.0534 85.0786 46.0317C85.2384 46.01 85.3867 45.9758 85.5214 45.929C85.656 45.8822 85.7838 45.8218 85.9047 45.7476C86.0257 45.6734 86.1455 45.5833 86.2642 45.4749C86.2996 45.4429 86.3384 45.4167 86.3771 45.3961C86.4171 45.3767 86.4582 45.3665 86.5015 45.3665V45.3676Z" fill="#ADBE8F"/>
<path d="M95.8887 43.3059C95.8887 43.8787 95.794 44.4081 95.6057 44.8965C95.4163 45.3849 95.1493 45.8059 94.8035 46.1631C94.4578 46.5191 94.0424 46.7975 93.5563 46.9972C93.0702 47.1969 92.5305 47.2973 91.936 47.2973C91.3415 47.2973 90.8075 47.1969 90.3214 46.9972C89.8353 46.7975 89.4189 46.5191 89.0708 46.1631C88.724 45.8071 88.4547 45.3849 88.263 44.8965C88.0724 44.4093 87.9766 43.8787 87.9766 43.3059C87.9766 42.7331 88.0713 42.2036 88.263 41.7152C88.4535 41.228 88.7228 40.8058 89.0708 40.4487C89.4177 40.0927 89.8353 39.8142 90.3214 39.6146C90.8075 39.4149 91.3461 39.3145 91.936 39.3145C92.332 39.3145 92.7051 39.3601 93.0543 39.4525C93.4034 39.5449 93.7241 39.6739 94.015 39.8416C94.306 40.0094 94.5685 40.2125 94.8012 40.4521C95.034 40.6917 95.2303 40.9587 95.3923 41.2543C95.5543 41.5498 95.6776 41.8704 95.762 42.215C95.8464 42.5608 95.8887 42.9248 95.8887 43.3059ZM94.4041 43.3059C94.4041 42.878 94.3471 42.4934 94.2318 42.1534C94.1166 41.8134 93.9523 41.5247 93.7401 41.2862C93.5278 41.0489 93.2688 40.8674 92.9653 40.7408C92.6606 40.6153 92.3183 40.5514 91.936 40.5514C91.5538 40.5514 91.2115 40.6141 90.9068 40.7408C90.6021 40.8663 90.3431 41.0489 90.1297 41.2862C89.9152 41.5235 89.7509 41.8122 89.6357 42.1534C89.5204 42.4946 89.4634 42.878 89.4634 43.3059C89.4634 43.7338 89.5204 44.1183 89.6357 44.4583C89.7509 44.7984 89.9152 45.0871 90.1297 45.3221C90.3443 45.5583 90.6033 45.7386 90.9068 45.8653C91.2115 45.9908 91.5538 46.0547 91.936 46.0547C92.3183 46.0547 92.6606 45.9919 92.9653 45.8653C93.2699 45.7398 93.5278 45.5583 93.7401 45.3221C93.9523 45.0859 94.1166 44.7984 94.2318 44.4583C94.3471 44.1183 94.4041 43.7338 94.4041 43.3059Z" fill="#ADBE8F"/>
<path d="M105.96 39.4012V47.2095H104.68V42.166C104.68 41.964 104.69 41.7472 104.712 41.5122L102.352 45.9452C102.24 46.1574 102.069 46.2635 101.839 46.2635H101.633C101.403 46.2635 101.232 46.1574 101.12 45.9452L98.7328 41.4951C98.7431 41.6137 98.7522 41.7313 98.7602 41.8465C98.7671 41.9617 98.7705 42.0679 98.7705 42.1649V47.2083H97.4902V39.4001H98.5868C98.6518 39.4001 98.7077 39.4023 98.7545 39.4058C98.8013 39.4092 98.8435 39.4183 98.8812 39.4332C98.9188 39.448 98.9531 39.4708 98.9839 39.5039C99.0147 39.5359 99.0444 39.5792 99.0729 39.634L101.411 43.97C101.473 44.0853 101.528 44.2039 101.581 44.326C101.633 44.4481 101.685 44.5748 101.735 44.7037C101.785 44.5702 101.838 44.4424 101.891 44.318C101.945 44.1937 102.003 44.0738 102.064 43.9586L104.37 39.6328C104.398 39.5792 104.429 39.5359 104.461 39.5028C104.493 39.4708 104.528 39.4469 104.566 39.432C104.604 39.4172 104.646 39.4081 104.693 39.4046C104.739 39.4012 104.795 39.3989 104.86 39.3989H105.957L105.96 39.4012Z" fill="#ADBE8F"/>
<path d="M110.56 39.4009C111.081 39.4009 111.533 39.4625 111.915 39.5846C112.296 39.7067 112.611 39.8778 112.86 40.0981C113.109 40.3172 113.292 40.5807 113.413 40.8865C113.534 41.1923 113.594 41.5278 113.594 41.8907C113.594 42.2535 113.531 42.6152 113.404 42.9302C113.278 43.2451 113.089 43.5155 112.837 43.7426C112.585 43.9697 112.269 44.1454 111.889 44.2721C111.509 44.3976 111.065 44.4615 110.557 44.4615H109.472V47.2103H108.02V39.402H110.557L110.56 39.4009ZM110.56 43.3273C110.825 43.3273 111.058 43.2942 111.257 43.2268C111.454 43.1607 111.62 43.0648 111.751 42.9404C111.882 42.8161 111.98 42.6654 112.045 42.4863C112.11 42.3083 112.142 42.1098 112.142 41.8895C112.142 41.6693 112.11 41.4913 112.045 41.3224C111.98 41.1535 111.883 41.0098 111.753 40.89C111.623 40.7713 111.46 40.68 111.261 40.6172C111.063 40.5545 110.829 40.5225 110.56 40.5225H109.474V43.325H110.56V43.3273Z" fill="#ADBE8F"/>
<path d="M121.177 47.2091H120.054C119.928 47.2091 119.826 47.1772 119.746 47.1144C119.667 47.0517 119.608 46.9729 119.568 46.8794L118.985 45.2865H115.75L115.167 46.8794C115.138 46.9627 115.082 47.038 114.999 47.1064C114.916 47.1749 114.813 47.2091 114.691 47.2091H113.557L116.63 39.4009H118.109L121.177 47.2091ZM118.612 44.2607L117.661 41.6636C117.614 41.5484 117.565 41.4114 117.515 41.2528C117.465 41.0942 117.415 40.9231 117.363 40.7393C117.316 40.9231 117.267 41.0954 117.217 41.2551C117.167 41.4148 117.118 41.5552 117.071 41.6739L116.126 44.2607H118.61H118.612Z" fill="#ADBE8F"/>
<path d="M128.893 39.4015V47.2098H128.148C128.033 47.2098 127.937 47.1904 127.86 47.1527C127.782 47.1151 127.708 47.0512 127.636 46.961L123.559 41.7555C123.581 41.9929 123.591 42.2131 123.591 42.4139V47.2087H122.311V39.4004H123.072C123.133 39.4004 123.186 39.4027 123.231 39.4084C123.276 39.4141 123.316 39.4244 123.35 39.4403C123.384 39.4563 123.417 39.4803 123.45 39.5111C123.482 39.5419 123.519 39.5818 123.559 39.632L127.652 44.8592C127.642 44.7337 127.632 44.6093 127.624 44.4872C127.618 44.3651 127.614 44.251 127.614 44.1472V39.4004H128.894L128.893 39.4015Z" fill="#ADBE8F"/>
<path d="M134.31 44.1853V47.2091H132.863V44.1853L130.018 39.4009H131.298C131.423 39.4009 131.524 39.4317 131.598 39.4922C131.672 39.5538 131.734 39.6302 131.784 39.7249L133.209 42.3334C133.292 42.4886 133.364 42.6335 133.428 42.7704C133.491 42.9074 133.548 43.0443 133.598 43.1812C133.645 43.0443 133.699 42.9074 133.76 42.7704C133.822 42.6335 133.891 42.4874 133.971 42.3334L135.392 39.7249C135.432 39.6462 135.491 39.572 135.57 39.5036C135.649 39.4351 135.75 39.4009 135.872 39.4009H137.157L134.311 44.1853H134.31Z" fill="#ADBE8F"/>
</g>
<defs>
<clipPath id="clip0_88_325">
<rect width="137.349" height="47.2957" fill="white"/>
</clipPath>
</defs>
</svg>
