<svg width="732" height="185" viewBox="0 0 732 185" fill="none" xmlns="http://www.w3.org/2000/svg">
<path d="M192.387 144.943V50.3175C192.387 35.6402 190.409 28.8503 183.605 17.8978V17.46H239.796C274.915 17.46 289.616 32.5751 289.616 55.3558C289.616 74.8497 279.741 91.7163 258.447 98.5062L285.223 149.322C294.004 166.405 298.83 171.443 309.805 176.919V177.795H279.519L239.79 101.35H210.382V144.938C210.382 160.053 211.92 165.967 219.163 177.357H183.605C190.631 166.405 192.387 159.837 192.387 144.938V144.943ZM226.405 21.8444C222.018 21.8444 216.747 21.8444 210.382 22.0605V96.9708H236.502C262.84 96.9708 270.96 77.4769 270.96 55.3558C270.96 35.4241 263.279 21.8444 236.28 21.8444H226.405Z" fill="#ADBE8F"/>
<path d="M431.56 171.381L420.704 162.072C419.189 160.775 417.012 160.587 415.297 161.617L392.452 175.305C391.962 175.6 391.318 175.396 391.085 174.878C390.885 174.429 391.051 173.9 391.484 173.661C394.886 171.756 408.949 163.596 416.186 154.889C419.496 150.903 417.684 144.841 412.727 143.328L412.607 143.289C408.937 142.168 405.045 144.108 403.689 147.696C401.319 153.951 396.726 163.749 388.857 172.592L388.498 172.757L340.649 174.292V99.382H368.303C376.645 99.382 383.449 112.308 389.375 118.876H391.13V74.1901H389.375C383.449 81.8557 376.423 94.9976 368.303 94.9976H340.649V20.9687L382.366 22.3562C384.988 22.4415 387.444 23.6869 389.062 25.7511C395.341 33.7352 399.153 42.0491 401.233 47.5879C402.578 51.1762 406.464 53.1267 410.14 52.0178L410.265 51.9837C415.234 50.4881 417.063 44.4261 413.758 40.4341C406.544 31.7051 392.509 23.5049 389.107 21.5885C388.674 21.344 388.509 20.8208 388.714 20.3716C388.948 19.8484 389.592 19.6494 390.082 19.9451L412.886 33.7011C414.596 34.7304 416.778 34.5541 418.294 33.2575L429.178 23.9826C431.981 21.5942 430.26 17.0107 426.574 17.0449L386.959 17.4543H313.879V17.8922C319.583 28.8447 322.438 36.0724 322.438 48.1168V147.121C322.438 159.166 319.366 166.615 313.879 177.346V177.784H390.395L428.938 178.29C432.625 178.341 434.363 173.763 431.565 171.364L431.56 171.381Z" fill="#ADBE8F"/>
<path d="M560.534 171.381L549.679 162.072C548.163 160.775 545.987 160.587 544.271 161.617L521.427 175.305C520.937 175.6 520.293 175.396 520.059 174.878C519.86 174.429 520.025 173.9 520.458 173.661C523.86 171.756 537.923 163.596 545.16 154.889C548.471 150.903 546.659 144.841 541.701 143.328L541.582 143.289C537.912 142.168 534.02 144.108 532.664 147.696C530.293 153.951 525.701 163.749 517.831 172.592L517.472 172.757L469.624 174.292V99.382H497.278C505.62 99.382 512.424 112.308 518.35 118.876H520.105V74.1901H518.35C512.424 81.8557 505.398 94.9976 497.278 94.9976H469.624V20.9687L511.341 22.3562C513.962 22.4415 516.418 23.6869 518.036 25.7511C524.316 33.7352 528.128 42.0491 530.208 47.5879C531.553 51.1762 535.439 53.1267 539.114 52.0178L539.24 51.9837C544.203 50.4881 546.038 44.4261 542.733 40.4341C535.519 31.7051 521.484 23.5049 518.082 21.5885C517.649 21.344 517.484 20.8208 517.689 20.3716C517.923 19.8484 518.566 19.6494 519.056 19.9451L541.861 33.7011C543.57 34.7304 545.747 34.5541 547.269 33.2575L558.152 23.9826C560.956 21.5942 559.235 17.0107 555.548 17.0449L515.934 17.4543H442.854V17.8922C448.557 28.8447 451.412 36.0724 451.412 48.1168V147.121C451.412 159.166 448.341 166.615 442.854 177.346V177.784H519.37L557.913 178.29C561.6 178.341 563.338 173.763 560.54 171.364L560.534 171.381Z" fill="#ADBE8F"/>
<path d="M731.733 18.1482L731.699 18.0401C730.365 13.6216 724.958 12.0009 721.396 14.9352C713.613 21.3441 706.302 33.8092 704.592 36.8289C704.376 37.2099 703.908 37.3577 703.504 37.1814C703.264 37.0734 703.099 36.8687 703.037 36.6355V36.1578C703.059 36.0896 703.088 36.027 703.128 35.9645L715.396 15.7086C716.313 14.1903 716.16 12.2511 715.003 10.9034L706.729 1.23607C705.407 -0.305014 703.339 -0.305012 701.96 0.69584C700.581 -0.305012 698.512 -0.3107 697.19 1.23607L688.916 10.9034C687.759 12.2511 687.606 14.1903 688.523 15.7086L700.791 35.9645C700.831 36.027 700.854 36.0896 700.877 36.1578V36.6355C700.814 36.8687 700.655 37.0734 700.415 37.1814C700.016 37.3634 699.544 37.2155 699.327 36.8289C697.618 33.8092 690.312 21.3555 682.534 14.9409C678.967 12.0009 673.559 13.6216 672.22 18.0345L672.186 18.1425C671.2 21.4066 672.938 24.8528 676.135 26.0526C681.263 27.969 689.059 31.5403 696.427 37.5056C698.364 39.0751 699.498 41.4294 699.509 43.9201L700.142 150.198L597.864 17.4601H571.304V17.898C580.74 24.25 585.35 30.602 588.644 41.7706V140.849C588.644 143.363 587.504 145.745 585.544 147.321C578.222 153.218 570.483 156.76 565.389 158.665C562.187 159.86 560.449 163.312 561.44 166.576L561.474 166.684C562.814 171.097 568.221 172.717 571.788 169.777C579.572 163.368 586.877 150.909 588.581 147.889C588.798 147.508 589.265 147.36 589.67 147.537C589.909 147.645 590.074 147.849 590.137 148.083V148.56C590.114 148.629 590.086 148.691 590.046 148.754L577.777 169.01C576.86 170.528 577.014 172.461 578.17 173.815L586.444 183.482C587.766 185.023 589.835 185.023 591.214 184.022C592.593 185.023 594.661 185.029 595.983 183.482L604.257 173.815C605.414 172.467 605.568 170.528 604.65 169.01L592.382 148.754C592.342 148.691 592.319 148.629 592.296 148.56V148.083C592.359 147.849 592.519 147.645 592.758 147.537C593.157 147.355 593.63 147.503 593.846 147.889C595.556 150.909 602.861 163.363 610.639 169.777C614.206 172.717 619.614 171.097 620.953 166.684L620.987 166.576C621.973 163.312 620.235 159.865 617.038 158.665C611.904 156.743 604.098 153.167 596.724 147.196C594.792 145.632 593.658 143.283 593.641 140.798L592.821 39.5755L699.709 178.444L704.319 177.784V43.9997C704.319 41.4976 705.453 39.1206 707.396 37.5454C714.786 31.546 722.627 27.969 727.773 26.047C730.975 24.8528 732.713 21.401 731.722 18.1368L731.733 18.1482ZM591.225 145.529H591.214H591.231H591.219H591.225Z" fill="#ADBE8F"/>
<path d="M171.09 110.738L171.056 110.63C169.746 106.308 164.452 104.727 160.959 107.599C153.34 113.877 146.189 126.069 144.519 129.027C144.309 129.402 143.847 129.544 143.454 129.368C143.22 129.26 143.061 129.061 142.998 128.833V128.367C143.021 128.304 143.049 128.236 143.083 128.179L155.095 108.35C155.996 106.866 155.842 104.966 154.708 103.647L146.611 94.1844C145.317 92.6717 143.294 92.6774 141.944 93.6555C140.593 92.6774 138.57 92.6717 137.277 94.1844L129.18 103.647C128.051 104.966 127.892 106.866 128.792 108.35L140.804 128.179C140.838 128.242 140.867 128.304 140.884 128.367V128.833C140.827 129.061 140.667 129.26 140.428 129.368C140.035 129.544 139.579 129.402 139.363 129.027C137.693 126.069 130.536 113.877 122.923 107.599C119.436 104.722 114.136 106.308 112.826 110.63L112.792 110.738C111.829 113.917 113.504 117.306 116.621 118.466C121.516 120.286 124.809 123.647 130.621 129.203C132.405 130.909 133.47 133.24 133.562 135.708C133.63 137.625 133.664 139.672 133.664 141.873C133.664 164.87 113.47 176.698 84.7218 176.698C38.8508 176.698 20.6334 142.089 20.6334 97.8466C20.6334 53.6044 41.7056 18.5575 86.6991 18.5575C93.2692 18.5575 99.241 19.2285 104.74 20.6218C110.814 22.1572 116.108 25.916 119.738 31.017C126.211 40.1213 130.279 49.1915 132.604 55.4241C134.28 59.9166 139.169 62.3163 143.767 60.9345C143.858 60.906 143.955 60.8776 144.046 60.8492C150.411 58.9328 152.696 51.1705 148.457 46.0582C139.294 35.009 121.595 24.6365 117.139 22.123C116.609 21.8217 116.319 21.1847 116.524 20.6161C116.792 19.8882 117.652 19.5925 118.302 19.9849L147.391 37.5282C149.574 38.8418 152.349 38.6144 154.292 36.9652L168.173 25.1313C171.751 22.0832 169.558 16.2374 164.851 16.2885L119.931 16.7492C117.595 16.7719 115.27 16.5842 112.968 16.2032C105.646 14.9806 97.5258 14.1731 88.6707 14.1731C33.5799 14.1731 0 50.9715 0 97.6248C0 144.278 32.7024 181.076 84.7218 181.076C120.496 181.076 139.813 165.086 150.565 157.858V139.899C150.565 138.495 150.577 137.164 150.599 135.896C150.645 133.365 151.688 130.954 153.511 129.197C159.278 123.63 162.366 120.269 167.284 118.455C170.395 117.306 172.042 113.906 171.079 110.738H171.09Z" fill="#ADBE8F"/>
</svg>
