<svg width="594" height="230" viewBox="0 0 594 230" fill="none" xmlns="http://www.w3.org/2000/svg">
<path fill-rule="evenodd" clip-rule="evenodd" d="M218.178 181.175C213.77 184.585 211.013 192.615 173.246 174.925C125.74 152.673 83.5293 109.447 83.0413 100.153C82.5413 90.6427 89.7503 81.9327 122.338 57.4057C137.026 46.3507 176.938 23.6027 190.158 26.0887C222.313 32.1357 266.17 108.874 223.678 174.824C221.575 178.087 221.382 177.792 218.178 181.175Z" fill="#ADBE8F"/>
<path fill-rule="evenodd" clip-rule="evenodd" d="M58.1364 126.104C71.2784 120.235 71.3014 126.228 88.1734 142.118C152.162 202.383 203.829 200.532 190.98 208.901C128.771 249.415 54.8254 224.643 26.5164 186.907C21.2234 179.851 47.7144 130.077 56.0294 126.854C56.7254 126.585 57.4414 126.374 58.1364 126.104Z" fill="#ADBE8F"/>
<path fill-rule="evenodd" clip-rule="evenodd" d="M516.12 154.12C511.511 159.116 510.394 156.725 489.152 157.235C488.783 157.244 482.505 157.394 485.487 154.446C487.301 152.652 522.908 113.402 523.057 111.136C523.246 108.276 522.604 108.423 505.453 79.9327C498.486 68.3587 498.047 68.2937 498.56 67.2597C499.295 65.7767 528.204 64.4107 530.203 68.1137C540.596 87.3557 540.484 94.2977 545.503 88.4157C546.832 86.8577 555.111 77.1567 561.594 68.5067C563.02 66.6047 563.907 65.4217 591.195 65.9017C594.719 65.9637 592.094 68.7657 591.923 68.9487C588.946 72.1257 555.544 107.781 555.262 109.169C554.719 111.84 582.984 153.79 582.39 156.233C581.874 158.352 580.978 157.537 555.15 157.253C547.728 157.171 539.948 124.298 535.242 129.24C533.51 131.057 533.754 131.24 516.12 154.12Z" fill="#ADBE8F"/>
<path fill-rule="evenodd" clip-rule="evenodd" d="M315.109 157.88C298.074 159.899 283.338 161.394 275.871 142.219C272.636 133.912 282.043 89.1867 280.039 87.2807C277.983 85.3247 267 89.8277 268.787 82.0727C270.931 72.7677 266.73 65.8647 277.152 66.0277C288.54 66.2067 283.788 60.2577 285.991 48.1107C287.404 40.3197 290.238 42.6427 298.148 42.6697C304.15 42.6907 315.829 41.4127 315.061 45.1327C310.923 65.1657 312.473 66.0947 314.153 66.1177C331.41 66.3497 333.566 64.4877 333.502 68.1317C333.481 69.3467 332.497 69.1187 331.425 83.1827C330.851 90.7167 310.576 82.7597 308.954 89.0857C308.671 90.1887 302.334 132.594 303.177 136.137C303.784 138.686 310.206 143.803 320.946 138.676C325.005 136.738 323.008 141.255 321.412 154.187C321.034 157.253 316.811 157.436 315.109 157.88Z" fill="#ADBE8F"/>
<path fill-rule="evenodd" clip-rule="evenodd" d="M156.236 6.0927C157.498 11.4597 159.186 11.9187 156.916 13.8657C153.044 17.1857 126.395 20.4067 79.7634 58.7047C67.6944 68.6167 62.0064 77.9137 54.3244 63.0567C38.2004 31.8757 40.3974 29.6167 42.4884 27.4647C44.5924 25.3007 63.3054 10.5767 89.1214 4.0227C124.432 -4.9413 153.662 3.5047 156.236 6.0927Z" fill="#ADBE8F"/>
<path fill-rule="evenodd" clip-rule="evenodd" d="M340.8 117.034C341.904 104.191 341.656 104.197 341.799 103.088C342.137 100.452 345.271 76.0287 346.45 70.1957C347.478 65.1087 349.384 65.9437 372.153 66.0917C377.422 66.1257 374.25 68.9267 373.864 74.1237C372.562 91.6307 381.18 65.6997 405.154 64.1957C420.785 63.2147 404.066 70.4867 395.725 84.9227C391.276 92.6237 388.925 89.9417 380.219 96.2277C363.262 108.474 365.838 146.323 363.157 155.145C361.922 159.205 336.389 156.841 336.374 156.828C334.001 154.871 340.669 117.477 340.8 117.034Z" fill="#ADBE8F"/>
<path fill-rule="evenodd" clip-rule="evenodd" d="M401.79 105.04C402.498 99.1916 405.87 93.0026 410.687 85.8166C428.698 58.9476 461.364 64.0926 464.224 64.8966C489.071 71.8846 492.199 91.1866 492.763 100.181C497.744 179.677 380.108 175.815 401.79 105.04ZM431.429 101.375C431.055 102.395 430.707 103.344 430.368 104.182C430.239 104.816 430.082 105.52 429.912 106.286C428.522 112.552 426.218 122.934 430.358 133.054C433.955 141.847 461.014 152.722 464.163 108.144C464.185 106.915 464.24 105.79 464.293 104.716C464.524 100.006 464.706 96.2901 461.831 89.2796C460.855 86.9006 456.04 82.6886 453.123 82.4586C438.783 81.3255 434.317 93.5021 431.429 101.375Z" fill="#ADBE8F"/>
<path fill-rule="evenodd" clip-rule="evenodd" d="M21.5234 57.7137C21.5424 75.3667 40.8734 89.3487 30.9464 100.976C27.2714 105.28 18.5904 120.62 17.5964 122.376C16.7494 123.873 9.30737 137.021 8.66437 141.932C8.64437 142.086 8.28137 141.688 7.15737 143.143C7.03037 143.308 7.24237 143.308 8.34937 145.458C8.19637 145.533 5.11837 147.905 4.21837 145.117C-7.27863 109.517 8.10337 73.9887 10.5524 68.3327C15.6654 56.5237 17.4834 55.6367 21.5234 57.7137Z" fill="#ADBE8F"/>
<path fill-rule="evenodd" clip-rule="evenodd" d="M21.5234 57.7137C29.8744 62.0357 31.1874 61.2187 34.4494 70.0247C42.3684 91.3987 47.9984 92.5297 40.6814 102.748C20.3784 131.1 27.2274 136.94 16.0444 141.928C15.4264 142.204 11.7154 143.859 8.34943 145.458C7.24243 143.308 7.03044 143.308 7.15744 143.143C8.28144 141.688 8.64444 142.086 8.66444 141.932C9.30744 137.021 16.7494 123.873 17.5964 122.376C18.5904 120.62 27.2714 105.28 30.9464 100.976C40.8734 89.3487 21.5424 75.3667 21.5234 57.7137Z" fill="#ADBE8F"/>
<path fill-rule="evenodd" clip-rule="evenodd" d="M527.866 183.171C529.746 173.746 539.043 173.558 541.852 179.273C547.09 189.931 526.845 204.538 527.866 183.171ZM530.595 185.164C530.712 184.425 532.372 173.965 537.891 179.309C543.322 184.567 531.05 199.5 530.595 185.164Z" fill="#ADBE8F"/>
<path fill-rule="evenodd" clip-rule="evenodd" d="M293.016 183.123C294.896 173.698 304.193 173.51 307.002 179.225C312.24 189.883 291.995 204.49 293.016 183.123ZM295.746 185.116C295.863 184.377 297.523 173.917 303.042 179.261C308.473 184.519 296.201 199.452 295.746 185.116Z" fill="#ADBE8F"/>
<path fill-rule="evenodd" clip-rule="evenodd" d="M355.757 188.529C355.802 186.47 355.842 184.642 359.012 186.222L359.014 186.229C359.202 186.869 362.117 196.797 363.744 191.982C364.077 190.998 363.531 189.696 363.017 188.47C362.475 187.179 361.969 185.973 362.559 185.31L362.869 184.962C366.574 180.802 367.965 179.241 363.124 176.184C362.755 175.951 353.98 172.933 353.513 180.186C353.456 181.077 353.414 181.812 353.379 182.443C353.21 185.441 353.173 186.099 352.159 190.144C351.333 193.439 355.128 193.552 355.644 190.278C355.731 189.725 355.745 189.118 355.757 188.529ZM359.159 183.227C352.12 182.761 359.005 175.94 362.118 179.172C364.911 182.073 359.553 183.148 359.159 183.227Z" fill="#ADBE8F"/>
<path fill-rule="evenodd" clip-rule="evenodd" d="M562.976 187.145C562.897 187.971 562.231 194.947 555.164 193.967C541.995 192.14 555.046 165.704 563.066 178.183C563.22 178.423 563.593 182.615 559.543 178.679C554.003 173.295 548.028 195.597 558.933 189.951C561.095 188.832 560.672 187.44 558.185 187.08C556.101 186.778 557.24 184.689 558.286 184.606C562.848 184.246 562.958 187.106 562.976 187.145Z" fill="#ADBE8F"/>
<path fill-rule="evenodd" clip-rule="evenodd" d="M449.507 182.874C453.481 182.802 455.171 184.968 455.831 181.05C458.567 164.823 459.814 185.873 457.379 191.25C456.77 192.596 453.217 193.635 454.608 188.243C455.584 184.455 453.376 185.429 449.46 185.617C447.924 185.691 447.309 195.992 444.21 192.106C444.013 191.86 446.146 177.26 446.205 177.178C449.415 172.701 448.87 180.981 449.507 182.874Z" fill="#ADBE8F"/>
<path fill-rule="evenodd" clip-rule="evenodd" d="M408.064 185.985C407.318 187.001 407.427 186.963 407.542 188.165C407.607 193.053 418.311 188.618 414.843 192.896C414.033 193.896 403.498 195.058 403.713 190.088C403.91 185.516 405.017 185.744 405.154 181.143C405.46 170.808 420.791 176.598 415.163 178.176C414.655 178.319 407.632 177.118 408.551 181.824C408.668 182.423 416.998 184.231 412.319 185.476C411.803 185.613 408.405 185.951 408.064 185.985Z" fill="#ADBE8F"/>
<path fill-rule="evenodd" clip-rule="evenodd" d="M435.765 190.815C420.121 203.522 419.836 172.5 434.086 175.566C438.367 176.487 438.887 183.771 435.111 180.192C426.966 172.471 423.835 196.553 432.828 189.807C433.027 189.657 437.525 186.283 435.765 190.815Z" fill="#ADBE8F"/>
<path fill-rule="evenodd" clip-rule="evenodd" d="M276.626 190.829C279.78 190.09 279.817 190.209 280.032 190.031C282.046 188.358 281.945 188.245 282.163 188.186C287.179 186.843 281.242 194.924 277.176 193.98C264.184 190.964 276.326 166.673 285.1 178.179C285.258 178.387 286.4 184.275 282.014 179.259C278.304 175.016 271.185 184.957 276.626 190.829Z" fill="#ADBE8F"/>
<path fill-rule="evenodd" clip-rule="evenodd" d="M487.754 183.161C489.634 173.736 498.931 173.548 501.74 179.263C506.978 189.921 486.733 204.528 487.754 183.161ZM490.484 185.154C490.601 184.415 492.261 173.955 497.78 179.299C503.211 184.557 490.939 199.49 490.484 185.154Z" fill="#ADBE8F"/>
<path fill-rule="evenodd" clip-rule="evenodd" d="M527.655 183.016C529.535 173.591 538.832 173.403 541.641 179.118C546.879 189.776 526.634 204.383 527.655 183.016ZM530.385 185.009C530.502 184.27 532.162 173.81 537.681 179.154C543.112 184.412 530.84 199.345 530.385 185.009Z" fill="#ADBE8F"/>
<path fill-rule="evenodd" clip-rule="evenodd" d="M336.19 190.13C336.033 191.812 335.942 191.689 335.156 193.088C330.962 189.975 334.022 186.537 334.009 183.115C334.005 182.107 333.967 172.023 344.054 175.523C350.533 177.771 338.417 177.988 337.46 179.471C336.481 180.99 335.36 181.644 337.207 182.075C340.248 182.784 345.019 185.176 340.094 185.679C336.497 186.046 336.16 186.574 336.19 190.13Z" fill="#ADBE8F"/>
<path fill-rule="evenodd" clip-rule="evenodd" d="M513.171 183.143C513.171 189.425 512.406 190.226 514.056 190.34C514.498 190.371 520.618 190.796 518.935 192.971C518.711 193.261 507.338 196.631 509.109 188.133C509.75 185.054 510.292 174.453 513.107 176.252C513.571 176.549 514.103 176.889 513.171 183.143Z" fill="#ADBE8F"/>
<path fill-rule="evenodd" clip-rule="evenodd" d="M394.032 179.029C393.894 179.492 393.756 179.956 393.617 180.419C392.595 185.112 392.289 195.909 389.432 191.953C388.486 190.643 390.555 179.041 390.418 178.926C390.207 178.749 385.284 177.869 386.336 176.276C387.379 174.699 407.464 175.34 394.032 179.029Z" fill="#ADBE8F"/>
<path fill-rule="evenodd" clip-rule="evenodd" d="M577.154 182.13C577.868 182.821 578.581 183.512 579.295 184.203C577.909 186.935 575.927 198.064 574.657 191.283C573.779 186.594 576.027 186.198 573.46 181.949C570.293 176.706 572.693 175.519 573.995 176.45C575.465 177.501 574.479 178.15 577.154 182.13Z" fill="#ADBE8F"/>
<path fill-rule="evenodd" clip-rule="evenodd" d="M321.224 190.164C316.398 197.399 313.733 176.356 316.135 176.071C318.725 175.765 318.093 185.676 320.17 188.119C320.949 189.035 320.678 189.105 321.224 190.164Z" fill="#ADBE8F"/>
<path fill-rule="evenodd" clip-rule="evenodd" d="M467.951 178.125C469.341 179.828 469.417 179.587 471.159 180.995L469.974 181.694C468.051 188.047 469.706 190.549 468.083 192.064C465.311 194.653 464.035 185.337 467.951 178.125Z" fill="#ADBE8F"/>
<path fill-rule="evenodd" clip-rule="evenodd" d="M467.951 178.125C468.056 177.827 469.513 173.685 471.833 177.337C473.868 180.541 475.865 185.324 476.165 186.042C475.493 186.742 474.822 187.443 474.15 188.143C472.759 185.68 472.778 185.796 471.979 183.189C471.706 182.458 471.432 181.726 471.159 180.995C469.417 179.587 469.341 179.828 467.951 178.125Z" fill="#ADBE8F"/>
<path fill-rule="evenodd" clip-rule="evenodd" d="M321.336 190.288C319.071 189.095 319.96 188.213 319.895 188.002C319.79 187.663 324.352 176.337 326.106 175.95C330.273 175.032 323.403 185.838 321.336 190.288Z" fill="#ADBE8F"/>
<path fill-rule="evenodd" clip-rule="evenodd" d="M476.166 186.042C478.225 182.379 477.556 182.257 477.949 178.109C478.596 171.29 483.208 180.491 478.81 189.132C477.311 187.685 477.668 187.534 476.166 186.042Z" fill="#ADBE8F"/>
<path fill-rule="evenodd" clip-rule="evenodd" d="M577.154 182.13C579.6 179.581 578.666 178.934 581.519 176.634C583.461 175.068 584.879 176.774 584.027 178.088C581.604 181.822 579.726 183.759 579.295 184.203C578.581 183.512 577.868 182.821 577.154 182.13Z" fill="#ADBE8F"/>
<path fill-rule="evenodd" clip-rule="evenodd" d="M336.19 190.13C337.829 190.791 346.622 189.724 343.198 193.194C341.851 194.559 341.629 193.798 335.156 193.088C335.942 191.689 336.033 191.812 336.19 190.13Z" fill="#ADBE8F"/>
<path fill-rule="evenodd" clip-rule="evenodd" d="M476.165 186.042C477.667 187.534 477.31 187.685 478.809 189.132C478.572 191.468 479.475 192.636 477.131 192.554C475.394 192.493 475.933 191.698 474.15 188.143C474.822 187.443 475.493 186.742 476.165 186.042Z" fill="#ADBE8F"/>
<path fill-rule="evenodd" clip-rule="evenodd" d="M471.159 180.995C471.432 181.726 471.706 182.458 471.979 183.189C471.621 182.704 471.598 182.79 469.974 181.694L471.159 180.995Z" fill="#ADBE8F"/>
<path fill-rule="evenodd" clip-rule="evenodd" d="M408.064 185.985L407.542 188.165C407.427 186.963 407.318 187.001 408.064 185.985Z" fill="#ADBE8F"/>
</svg>
