<svg width="91" height="54" viewBox="0 0 91 54" fill="none" xmlns="http://www.w3.org/2000/svg">
<g clip-path="url(#clip0_88_295)">
<path d="M30.0261 38.2667H32.0351V11.9111H20.0469V13.9201C20.0469 14.0224 20.0875 14.1204 20.1598 14.1927C20.2321 14.2651 20.3302 14.3057 20.4325 14.3057H29.6289V28.2681H27.6393C27.537 28.2681 27.4389 28.3088 27.3666 28.3811C27.2943 28.4534 27.2537 28.5515 27.2537 28.6537V29.0393C27.2537 29.1416 27.2943 29.2397 27.3666 29.312C27.4389 29.3843 27.537 29.4249 27.6393 29.4249H29.6289V30.6318H27.6393C27.537 30.6318 27.4389 30.6725 27.3666 30.7448C27.2943 30.8171 27.2537 30.9152 27.2537 31.0174V31.4339C27.2537 31.5362 27.2943 31.6342 27.3666 31.7065C27.4389 31.7789 27.537 31.8195 27.6393 31.8195H29.6289V32.9994H27.6393C27.537 32.9994 27.4389 33.04 27.3666 33.1124C27.2943 33.1847 27.2537 33.2827 27.2537 33.385V33.7706C27.2537 33.8729 27.2943 33.9709 27.3666 34.0433C27.4389 34.1156 27.537 34.1562 27.6393 34.1562H29.6289V37.7847C29.6136 37.8436 29.6124 37.9054 29.6256 37.9649C29.6387 38.0244 29.6658 38.08 29.7045 38.127C29.7433 38.1741 29.7926 38.2112 29.8485 38.2355C29.9044 38.2598 29.9653 38.2705 30.0261 38.2667Z" fill="#ADBE8F"/>
<path d="M60.5385 19.0987H66.2569L66.9856 17.2479C67.0136 17.1865 67.0249 17.1188 67.0185 17.0517C67.0121 16.9845 66.9882 16.9202 66.9492 16.8652C66.9102 16.8101 66.8574 16.7663 66.7961 16.7381C66.7348 16.7098 66.6672 16.6981 66.6 16.7042H60.1722C60.105 16.6981 60.0374 16.7098 59.9761 16.7381C59.9148 16.7663 59.8621 16.8101 59.823 16.8652C59.784 16.9202 59.7601 16.9845 59.7537 17.0517C59.7473 17.1188 59.7586 17.1865 59.7866 17.2479L60.5385 19.0987Z" fill="#ADBE8F"/>
<path d="M62.2146 22.6924H64.5552C64.6383 22.6973 64.7208 22.6751 64.7903 22.6293C64.8598 22.5834 64.9126 22.5162 64.9408 22.4379L65.7852 20.2939H61L61.8445 22.4379C61.8718 22.5136 61.9223 22.5789 61.9887 22.6246C62.055 22.6702 62.1341 22.6939 62.2146 22.6924Z" fill="#ADBE8F"/>
<path d="M66.1437 38.266C66.2263 38.2712 66.3085 38.2496 66.3779 38.2045C66.4474 38.1593 66.5004 38.093 66.5293 38.0154L68.0215 34.2404H71.9854V37.8688C71.9854 37.9711 72.0261 38.0692 72.0984 38.1415C72.1707 38.2138 72.2688 38.2544 72.371 38.2544H74.3646V11.5981L63.8301 38.266H66.1437ZM71.9623 24.2226V28.2675H70.3582L71.9623 24.2226ZM69.8955 29.4551H71.97V30.662H69.4058L69.8955 29.4551ZM68.9392 31.8767H71.97V33.0566H68.4727L68.9392 31.8767Z" fill="#ADBE8F"/>
<path d="M52.3906 38.2661H54.3919C54.4941 38.2661 54.5922 38.2255 54.6645 38.1532C54.7368 38.0808 54.7775 37.9828 54.7775 37.8805V34.2405H58.753L60.2452 38.0155C60.2741 38.0931 60.3271 38.1594 60.3966 38.2045C60.466 38.2497 60.5482 38.2713 60.6308 38.2661H62.9444L52.3906 11.5674V38.2661ZM54.7929 24.1764L56.4085 28.2676H54.7929V24.1764ZM54.7929 29.4552H56.879L57.3571 30.6621H54.7929V29.4552ZM54.7929 31.8768H57.8352L58.3018 33.0567H54.7929V31.8768Z" fill="#ADBE8F"/>
<path d="M71.6934 8.57597L63.3915 29.5948L55.0781 8.57597C55.0499 8.49759 54.9971 8.43045 54.9276 8.38458C54.8581 8.3387 54.7756 8.31656 54.6925 8.32147H52.3789L63.3568 36.1153L74.3618 8.32918H72.0482C71.9712 8.33018 71.8962 8.35423 71.833 8.39821C71.7698 8.44219 71.7212 8.50411 71.6934 8.57597Z" fill="#ADBE8F"/>
<path d="M84.7399 16.7038H79.5614C79.4591 16.7038 79.361 16.7444 79.2887 16.8167C79.2164 16.889 79.1758 16.9871 79.1758 17.0894V19.0521H85.1371V17.101C85.1387 17.0484 85.1295 16.996 85.1101 16.9471C85.0907 16.8982 85.0615 16.8538 85.0243 16.8166C84.9871 16.7793 84.9427 16.7502 84.8938 16.7308C84.8449 16.7114 84.7925 16.7022 84.7399 16.7038Z" fill="#ADBE8F"/>
<path d="M79.1621 22.2566C79.1621 22.3589 79.2027 22.457 79.275 22.5293C79.3474 22.6016 79.4454 22.6422 79.5477 22.6422H84.7263C84.8285 22.6422 84.9266 22.6016 84.9989 22.5293C85.0712 22.457 85.1119 22.3589 85.1119 22.2566V20.2939H79.1621V22.2566Z" fill="#ADBE8F"/>
<path d="M45.2032 8.72202C45.2032 8.61976 45.1626 8.52168 45.0903 8.44936C45.0179 8.37705 44.9199 8.33643 44.8176 8.33643H20.4325C20.3302 8.33643 20.2321 8.37705 20.1598 8.44936C20.0875 8.52168 20.0469 8.61976 20.0469 8.72202V10.7156H45.2148L45.2032 8.72202Z" fill="#ADBE8F"/>
<path d="M45.2032 13.92V11.9033H33.2266V38.2588H35.224C35.3262 38.2588 35.4243 38.2182 35.4966 38.1459C35.5689 38.0736 35.6095 37.9755 35.6095 37.8732V34.2409H37.5915C37.6938 34.2409 37.7919 34.2003 37.8642 34.128C37.9365 34.0557 37.9771 33.9576 37.9771 33.8553V33.4697C37.9771 33.3675 37.9365 33.2694 37.8642 33.1971C37.7919 33.1248 37.6938 33.0841 37.5915 33.0841H35.6288V31.8772H37.6108C37.7131 31.8772 37.8111 31.8366 37.8835 31.7643C37.9558 31.692 37.9964 31.5939 37.9964 31.4916V31.0636C37.9964 30.9613 37.9558 30.8633 37.8835 30.791C37.8111 30.7186 37.7131 30.678 37.6108 30.678H35.6288V29.4557H37.6108C37.7131 29.4557 37.8111 29.4151 37.8835 29.3427C37.9558 29.2704 37.9964 29.1723 37.9964 29.0701V28.6845C37.9964 28.5822 37.9558 28.4841 37.8835 28.4118C37.8111 28.3395 37.7131 28.2989 37.6108 28.2989H35.6288V14.321H44.8099C44.8625 14.3221 44.9148 14.3124 44.9635 14.2926C45.0122 14.2727 45.0564 14.2431 45.0932 14.2055C45.13 14.1679 45.1588 14.1232 45.1777 14.0741C45.1966 14.025 45.2053 13.9726 45.2032 13.92Z" fill="#ADBE8F"/>
<path d="M16.0055 19.0988H23.2432C23.3454 19.0988 23.4435 19.1395 23.5158 19.2118C23.5881 19.2841 23.6288 19.3822 23.6288 19.4844V35.6371C23.6288 38.0199 24.5753 40.3051 26.2602 41.99C27.9451 43.6749 30.2304 44.6215 32.6132 44.6215C34.996 44.6215 37.2812 43.6749 38.9661 41.99C40.651 40.3051 41.5976 38.0199 41.5976 35.6371V19.496C41.5976 19.3937 41.6382 19.2957 41.7105 19.2234C41.7828 19.151 41.8809 19.1104 41.9832 19.1104H47.5589V17.1015C47.5589 16.9992 47.5183 16.9011 47.4459 16.8288C47.3736 16.7565 47.2756 16.7159 47.1733 16.7159H39.6272C39.5249 16.7159 39.4268 16.7565 39.3545 16.8288C39.2822 16.9011 39.2416 16.9992 39.2416 17.1015V35.6371C39.2 37.3567 38.4876 38.9919 37.2567 40.1934C36.0257 41.3949 34.3738 42.0675 32.6537 42.0675C30.9335 42.0675 29.2816 41.3949 28.0506 40.1934C26.8197 38.9919 26.1073 37.3567 26.0657 35.6371V17.1015C26.0657 16.9992 26.0251 16.9011 25.9528 16.8288C25.8805 16.7565 25.7824 16.7159 25.6801 16.7159H16.0402C13.9008 16.7104 11.7954 17.2508 9.92303 18.2858C8.05066 19.3208 6.47324 20.8163 5.33992 22.6309C5.31066 22.6758 5.29107 22.7263 5.28241 22.7792C5.27375 22.8321 5.27621 22.8862 5.28964 22.9381C5.30306 22.99 5.32715 23.0385 5.36038 23.0805C5.3936 23.1226 5.43522 23.1572 5.48259 23.1823L7.20235 24.1772C8.09619 22.6337 9.37989 21.3521 10.9249 20.4609C12.4699 19.5696 14.2219 19.0999 16.0055 19.0988Z" fill="#ADBE8F"/>
<path d="M47.5981 22.2913V20.2939H42.8205V35.606C42.7686 38.272 41.6731 40.8114 39.7693 42.6784C37.8656 44.5455 35.3054 45.5914 32.6389 45.5914C29.9723 45.5914 27.4121 44.5455 25.5084 42.6784C23.6046 40.8114 22.5091 38.272 22.4572 35.606V20.3055H16.0177C14.4434 20.3033 12.8961 20.7151 11.531 21.4995C10.166 22.2838 9.03113 23.4133 8.24023 24.7746L9.97927 25.7771C10.0649 25.831 10.1683 25.8491 10.2671 25.8274C10.3659 25.8058 10.4523 25.7462 10.5075 25.6614C11.1068 24.7502 11.9229 24.0019 12.8825 23.4837C13.8422 22.9655 14.9155 22.6936 16.0061 22.6924H20.0511V35.606C20.0511 38.9419 21.3762 42.1412 23.7351 44.5001C26.094 46.8589 29.2933 48.1841 32.6292 48.1841C35.9651 48.1841 39.1645 46.8589 41.5233 44.5001C43.8822 42.1412 45.2074 38.9419 45.2074 35.606V22.6924H47.2009C47.2538 22.694 47.3065 22.6847 47.3557 22.6651C47.4049 22.6454 47.4495 22.6159 47.4868 22.5783C47.524 22.5407 47.5531 22.4958 47.5723 22.4464C47.5914 22.397 47.6002 22.3442 47.5981 22.2913Z" fill="#ADBE8F"/>
<path d="M48.8147 8.71797V28.2677H46.825C46.7228 28.2677 46.6247 28.3083 46.5524 28.3807C46.4801 28.453 46.4395 28.551 46.4395 28.6533V29.0389C46.4395 29.1412 46.4801 29.2393 46.5524 29.3116C46.6247 29.3839 46.7228 29.4245 46.825 29.4245H48.8147V30.6314H46.825C46.7228 30.6314 46.6247 30.672 46.5524 30.7444C46.4801 30.8167 46.4395 30.9148 46.4395 31.017V31.4335C46.4395 31.5357 46.4801 31.6338 46.5524 31.7061C46.6247 31.7784 46.7228 31.8191 46.825 31.8191H48.8147V32.999H46.825C46.7228 32.999 46.6247 33.0396 46.5524 33.1119C46.4801 33.1842 46.4395 33.2823 46.4395 33.3846V33.7702C46.4395 33.8724 46.4801 33.9705 46.5524 34.0428C46.6247 34.1152 46.7228 34.1558 46.825 34.1558H48.8147V37.7842C48.8147 37.8865 48.8554 37.9846 48.9277 38.0569C49 38.1292 49.0981 38.1698 49.2003 38.1698H51.1861V8.3208H49.2003C49.1487 8.32078 49.0976 8.33112 49.05 8.35122C49.0025 8.37132 48.9595 8.40076 48.9235 8.4378C48.8875 8.47484 48.8594 8.51872 48.8407 8.56685C48.822 8.61498 48.8132 8.66636 48.8147 8.71797Z" fill="#ADBE8F"/>
<path d="M84.7399 28.2679H77.9649V8.72202C77.9649 8.61976 77.9243 8.52168 77.852 8.44936C77.7797 8.37705 77.6816 8.33643 77.5793 8.33643H75.5742V38.2664H77.5793C77.6816 38.2664 77.7797 38.2258 77.852 38.1535C77.9243 38.0812 77.9649 37.9831 77.9649 37.8808V34.2408H84.7399C84.8421 34.2408 84.9402 34.2002 85.0125 34.1279C85.0848 34.0556 85.1254 33.9575 85.1254 33.8552V33.4696C85.1254 33.3673 85.0848 33.2693 85.0125 33.197C84.9402 33.1246 84.8421 33.084 84.7399 33.084H77.9649V31.8771H84.7399C84.8421 31.8771 84.9402 31.8365 85.0125 31.7642C85.0848 31.6918 85.1254 31.5938 85.1254 31.4915V31.0635C85.1254 30.9612 85.0848 30.8631 85.0125 30.7908C84.9402 30.7185 84.8421 30.6779 84.7399 30.6779H77.9649V29.4556H84.7399C84.8421 29.4556 84.9402 29.4149 85.0125 29.3426C85.0848 29.2703 85.1254 29.1722 85.1254 29.07V28.6844C85.1297 28.6312 85.1229 28.5777 85.1054 28.5273C85.088 28.4769 85.0603 28.4307 85.024 28.3915C84.9878 28.3524 84.9438 28.3212 84.8949 28.2999C84.846 28.2786 84.7932 28.2677 84.7399 28.2679Z" fill="#ADBE8F"/>
<path d="M18.4545 28.2681H12.0729C11.8514 28.2681 11.6719 28.4476 11.6719 28.6691V29.0547C11.6719 29.2762 11.8514 29.4557 12.0729 29.4557H18.4545C18.676 29.4557 18.8555 29.2762 18.8555 29.0547V28.6691C18.8555 28.4476 18.676 28.2681 18.4545 28.2681Z" fill="#ADBE8F"/>
<path d="M18.4545 33.0566H12.0729C11.8514 33.0566 11.6719 33.2362 11.6719 33.4577V33.8394C11.6719 34.0609 11.8514 34.2404 12.0729 34.2404H18.4545C18.676 34.2404 18.8555 34.0609 18.8555 33.8394V33.4577C18.8555 33.2362 18.676 33.0566 18.4545 33.0566Z" fill="#ADBE8F"/>
<path d="M18.4545 30.6626H12.0729C11.8514 30.6626 11.6719 30.8421 11.6719 31.0636V31.4762C11.6719 31.6977 11.8514 31.8772 12.0729 31.8772H18.4545C18.676 31.8772 18.8555 31.6977 18.8555 31.4762V31.0636C18.8555 30.8421 18.676 30.6626 18.4545 30.6626Z" fill="#ADBE8F"/>
<path d="M84.7399 28.2679H77.9649V8.72202C77.9649 8.61976 77.9243 8.52168 77.852 8.44936C77.7797 8.37705 77.6816 8.33643 77.5793 8.33643H75.5742V38.2664H77.5793C77.6816 38.2664 77.7797 38.2258 77.852 38.1535C77.9243 38.0812 77.9649 37.9831 77.9649 37.8808V34.2408H84.7399C84.8421 34.2408 84.9402 34.2002 85.0125 34.1279C85.0848 34.0556 85.1254 33.9575 85.1254 33.8552V33.4696C85.1254 33.3673 85.0848 33.2693 85.0125 33.197C84.9402 33.1246 84.8421 33.084 84.7399 33.084H77.9649V31.8771H84.7399C84.8421 31.8771 84.9402 31.8365 85.0125 31.7642C85.0848 31.6918 85.1254 31.5938 85.1254 31.4915V31.0635C85.1254 30.9612 85.0848 30.8631 85.0125 30.7908C84.9402 30.7185 84.8421 30.6779 84.7399 30.6779H77.9649V29.4556H84.7399C84.8421 29.4556 84.9402 29.4149 85.0125 29.3426C85.0848 29.2703 85.1254 29.1722 85.1254 29.07V28.6844C85.1297 28.6312 85.1229 28.5777 85.1054 28.5273C85.088 28.4769 85.0603 28.4307 85.024 28.3915C84.9878 28.3524 84.9438 28.3212 84.8949 28.2999C84.846 28.2786 84.7932 28.2677 84.7399 28.2679Z" fill="#ADBE8F"/>
</g>
<defs>
<clipPath id="clip0_88_295">
<rect width="90.6152" height="53.9835" fill="white"/>
</clipPath>
</defs>
</svg>
