<svg width="192" height="15" viewBox="0 0 192 15" fill="none" xmlns="http://www.w3.org/2000/svg">
<g clip-path="url(#clip0_88_318)">
<path d="M3.24285 2.46879L9.83341 14.4419L17.4626 14.448L23.9402 2.46879H27.1871V0.298828H17.4202V2.46879H20.2416L15.5245 11.189L10.745 2.46879H14.1733L14.1713 0.298828H0.0020167L0 2.46879H3.24285Z" fill="#ADBE8F"/>
<path d="M87.2012 2.46427V0.29834H100.265V2.46226H97.0104V12.2352H100.027C102.823 12.2352 104.656 10.3879 104.656 7.88314H106.812V14.4273H87.1992V12.2372H90.4925L90.4885 2.46024H87.1992L87.2012 2.46427Z" fill="#ADBE8F"/>
<path d="M55.5159 0C48.9556 0 45.4707 3.2731 45.4707 7.37909C45.4707 11.4851 48.8265 14.8631 55.5542 14.8631C62.2819 14.8631 65.5993 11.5436 65.5993 7.37909C65.5993 3.21461 62.0782 0 55.5159 0ZM55.4433 12.6144C53.0474 12.5721 51.9947 9.92416 52.0391 7.29238C52.0875 4.56782 53.3903 2.19215 55.6349 2.23047C57.8794 2.2708 59.0653 4.69084 59.0169 7.41539C58.9705 9.98466 57.9117 12.6608 55.4433 12.6165V12.6144Z" fill="#ADBE8F"/>
<path d="M129.102 2.46831L135.691 14.4414L143.322 14.4475L149.8 2.46831H153.046V0.29834H143.28V2.46831H146.101L141.384 11.1885L136.604 2.46831H140.031V0.29834H125.861L125.859 2.46831H129.102Z" fill="#ADBE8F"/>
<path d="M181.379 0C174.819 0 171.334 3.2731 171.334 7.37909C171.334 11.4851 174.69 14.8631 181.417 14.8631C188.145 14.8631 191.463 11.5436 191.463 7.37909C191.463 3.21461 187.941 0 181.379 0ZM181.307 12.6144C178.911 12.5721 177.858 9.92416 177.904 7.29238C177.953 4.56782 179.256 2.19215 181.5 2.23047C183.745 2.2708 184.929 4.69084 184.88 7.41539C184.836 9.98466 183.775 12.6608 181.307 12.6165V12.6144Z" fill="#ADBE8F"/>
</g>
<defs>
<clipPath id="clip0_88_318">
<rect width="191.467" height="14.8631" fill="white"/>
</clipPath>
</defs>
</svg>
